<?xml version="1.0" encoding="UTF-8"?>
<svg version="1.1" xmlns="http://www.w3.org/2000/svg" width="1080" height="1080">
<path d="M0 0 C1.17796143 0.07798828 2.35592285 0.15597656 3.56958008 0.23632812 C4.82923584 0.32849609 6.0888916 0.42066406 7.38671875 0.515625 C8.68311279 0.60779297 9.97950684 0.69996094 11.31518555 0.79492188 C22.15537912 1.60928368 32.88313943 2.89456428 43.640625 4.43505859 C45.80448589 4.72898593 47.96384378 4.97640484 50.13671875 5.19140625 C68.78723545 7.11474079 87.314563 11.22102523 104.07421875 19.765625 C104.73421875 20.095625 105.39421875 20.425625 106.07421875 20.765625 C106.07421875 21.425625 106.07421875 22.085625 106.07421875 22.765625 C106.67234375 22.971875 107.27046875 23.178125 107.88671875 23.390625 C110.97429089 25.33138463 111.64389435 27.42820141 113.07421875 30.765625 C113.64950984 33.32803263 114.11979568 35.8032607 114.51171875 38.390625 C114.63893311 39.11556152 114.76614746 39.84049805 114.8972168 40.58740234 C115.62546761 44.74367468 116.20674128 48.88289155 116.66015625 53.078125 C117.43100245 61.86218728 117.43100245 61.86218728 121.57617188 69.29296875 C125.42996774 71.96459246 129.6196449 73.34752251 134.07421875 74.765625 C135.06421875 75.425625 136.05421875 76.085625 137.07421875 76.765625 C137.07421875 77.425625 137.07421875 78.085625 137.07421875 78.765625 C137.67234375 78.9925 138.27046875 79.219375 138.88671875 79.453125 C142.42681617 81.57718345 143.76762057 84.57667133 144.78198242 88.51025391 C144.9338501 89.49429199 145.08571777 90.47833008 145.2421875 91.4921875 C145.49971802 93.15048584 145.49971802 93.15048584 145.76245117 94.84228516 C150.60918508 129.28846151 150.60918508 129.28846151 145.32421875 137.015625 C140.45654833 142.00274746 133.54488633 146.44474594 126.83984375 148.42578125 C123.73583634 150.7812559 123.64597002 154.6204342 123.01171875 158.265625 C122.84671875 159.14855225 122.68171875 160.03147949 122.51171875 160.94116211 C121.05094033 169.11769943 120.10557024 177.34568297 119.22509766 185.60180664 C118.2190741 194.95590429 116.86364077 204.23573038 115.34375 213.51977539 C114.29345674 220.19847124 113.29987158 227.00354121 114.07421875 233.765625 C115.84576527 236.29153348 115.84576527 236.29153348 118.07421875 237.765625 C120.85916457 246.12046245 118.46887 255.97718009 117.38671875 264.515625 C117.20755467 265.95855154 117.02860443 267.40150464 116.84985352 268.84448242 C114.20697991 290.03912213 111.44839751 311.23470669 108.16992188 332.34106445 C106.77852646 341.43917899 105.65984248 350.57613652 104.51928711 359.70849609 C103.65609351 366.55172993 102.6736221 373.34938411 101.50512695 380.14697266 C100.94074008 383.57678207 100.55929761 386.99563313 100.19921875 390.453125 C99.2830843 398.80896994 97.91329568 407.07471721 96.54003906 415.36572266 C95.33896906 422.75128914 94.39221871 430.12174537 93.7578125 437.57763672 C92.62020045 450.23357079 92.62020045 450.23357079 88.14477539 455.11328125 C83.78569643 460.8002041 83.43680905 467.25396107 82.625 474.17578125 C82.44109947 475.58926153 82.2550338 477.00246159 82.06694031 478.41539001 C81.57816237 482.13089736 81.11844665 485.84943027 80.66503906 489.56939697 C80.20866794 493.27310882 79.7253917 496.97328198 79.24414062 500.67382812 C78.00872954 510.21950204 76.81037905 519.76972203 75.63742065 529.32327271 C75.25150298 532.46354933 74.85867173 535.60289506 74.46484375 538.7421875 C74.3072332 540.06229576 74.3072332 540.06229576 74.1464386 541.40907288 C73.182821 549.034936 71.31066202 556.33586733 69.1953125 563.71484375 C68.27990253 566.92136039 67.60571339 570.09535823 67.07421875 573.390625 C66.12006804 578.47059408 63.92576903 582.49229334 61.07421875 586.765625 C60.66558594 587.38308594 60.25695312 588.00054688 59.8359375 588.63671875 C43.60323076 610.13667546 3.6030828 615.53966065 -20.75390625 619.3671875 C-71.13773844 625.69619105 -136.02556806 623.15327601 -178.92578125 592.765625 C-178.92578125 592.105625 -178.92578125 591.445625 -178.92578125 590.765625 C-179.52132812 590.52457031 -180.116875 590.28351562 -180.73046875 590.03515625 C-183.36291134 588.51283624 -184.41507646 587.00088509 -186.05078125 584.453125 C-186.54835938 583.69386719 -187.0459375 582.93460938 -187.55859375 582.15234375 C-189.98556529 577.91554486 -191.15128113 574.090483 -191.80078125 569.265625 C-192.4462804 565.02665661 -193.39429921 561.18912131 -194.8125 557.1484375 C-197.68020625 548.00032481 -198.67976189 538.62677022 -199.86328125 529.140625 C-200.11876473 527.17159992 -200.37512765 525.20268877 -200.63232422 523.23388672 C-201.95617041 513.00058669 -203.16668238 502.75812041 -204.28125 492.5 C-204.44363411 491.02601242 -204.44363411 491.02601242 -204.60929871 489.52224731 C-205.12781289 484.81272285 -205.63060556 480.10273187 -206.10131836 475.38818359 C-206.28438338 473.68320261 -206.46802732 471.97828365 -206.65234375 470.2734375 C-206.72200851 469.51182312 -206.79167328 468.75020874 -206.8634491 467.96551514 C-207.45991621 462.66585216 -209.05086529 459.26058279 -211.92578125 454.765625 C-215.19868764 448.58346848 -216.10028766 443.50254928 -216.73828125 436.578125 C-217.61003887 427.6239163 -218.97105166 418.78445824 -220.5168457 409.9230957 C-221.42163862 404.58372737 -222.06781852 399.33322157 -222.3984375 393.92578125 C-222.86771101 386.52163166 -224.03503098 379.31971843 -225.30078125 372.015625 C-227.13267798 361.15787345 -228.6470321 350.30666406 -229.8293457 339.35693359 C-230.82676763 330.25431632 -232.14266041 321.21522681 -233.51586914 312.16259766 C-234.57061902 305.20094408 -235.52578024 298.24558841 -236.359375 291.25390625 C-236.82757161 287.43228582 -237.36088159 283.6210434 -237.8984375 279.80859375 C-238.07697266 278.53935059 -238.25550781 277.27010742 -238.43945312 275.96240234 C-238.7954711 273.44272 -239.1546554 270.92348224 -239.51757812 268.40478516 C-242.88516295 244.5163866 -242.88516295 244.5163866 -239.92578125 236.765625 C-239.20390625 236.1675 -238.48203125 235.569375 -237.73828125 234.953125 C-235.69654234 232.95726364 -235.69654234 232.95726364 -235.90600586 230.56982422 C-236.00405518 229.68311035 -236.10210449 228.79639648 -236.203125 227.8828125 C-236.31164795 226.89079834 -236.4201709 225.89878418 -236.53198242 224.87670898 C-237.17368406 219.80714671 -237.91328314 214.7557597 -238.67578125 209.703125 C-240.83841096 195.0481284 -242.56757172 180.34796141 -244.26269531 165.63256836 C-244.3659462 164.7438353 -244.46919708 163.85510223 -244.57557678 162.93943787 C-244.77021615 161.262274 -244.96259248 159.58484541 -245.15232849 157.90711975 C-245.55353779 154.45330251 -246.03144963 151.12457869 -246.92578125 147.765625 C-247.63863281 147.66507813 -248.35148437 147.56453125 -249.0859375 147.4609375 C-252.32325634 146.66830648 -254.54986432 145.42046039 -257.36328125 143.640625 C-258.26949219 143.08117187 -259.17570312 142.52171875 -260.109375 141.9453125 C-268.21766128 135.6701062 -268.21766128 135.6701062 -269.46362305 130.55957031 C-269.66727558 127.99560331 -269.6530345 125.5231987 -269.55078125 122.953125 C-269.52894775 122.01259277 -269.50711426 121.07206055 -269.48461914 120.10302734 C-269.19938109 112.3234612 -268.39722246 104.60351939 -267.36328125 96.890625 C-267.16629639 95.26096802 -267.16629639 95.26096802 -266.96533203 93.59838867 C-265.62267919 84.83979395 -262.24758948 80.09701884 -255.30078125 74.7421875 C-250.56142349 72.04511878 -246.26902877 69.92720055 -240.92578125 68.765625 C-240.80968506 68.06107178 -240.69358887 67.35651855 -240.57397461 66.63061523 C-239.25852211 58.68802831 -237.90490244 50.75330921 -236.48828125 42.828125 C-236.28396484 41.63638672 -236.07964844 40.44464844 -235.86914062 39.21679688 C-235.55879883 37.49493164 -235.55879883 37.49493164 -235.2421875 35.73828125 C-235.06115479 34.70968994 -234.88012207 33.68109863 -234.69360352 32.62133789 C-232.99832448 26.31619357 -229.27011335 22.26033801 -223.92578125 18.765625 C-199.63348497 6.07561948 -169.91295891 4.84140997 -143.16239929 2.00683594 C-140.83000555 1.75529595 -138.49962966 1.48830654 -136.16894531 1.22143555 C-131.35381539 0.6858178 -126.58124345 0.47127993 -121.73828125 0.390625 C-120.87525391 0.35324219 -120.01222656 0.31585938 -119.12304688 0.27734375 C-114.91131243 0.21933976 -111.85316412 0.32877438 -108.42578125 2.9375 C-105.21359584 6.57128475 -104.51600022 9.60889865 -103.46875 14.2421875 C-101.35686441 17.69605609 -99.20651864 18.14573037 -95.40258789 19.2109375 C-91.62908063 20.05602459 -87.89973372 20.5972259 -84.05078125 20.953125 C-83.23561035 21.03280518 -82.42043945 21.11248535 -81.58056641 21.19458008 C-72.68998016 21.98847379 -63.84173885 22.02328973 -54.92578125 21.765625 C-53.81541504 21.73662109 -53.81541504 21.73662109 -52.68261719 21.70703125 C-35.32779898 21.70865803 -35.32779898 21.70865803 -20.0625 15.375 C-17.68861569 12.84134899 -17.68861569 12.84134899 -16.98828125 9.265625 C-15.56879347 4.58966526 -13.92621799 3.48592198 -9.92578125 0.765625 C-6.55281884 -0.4310434 -3.54490716 -0.23663612 0 0 Z " fill="#BD8A5D" transform="translate(600.92578125,286.234375)"/>
<path d="M0 0 C1.17796143 0.07798828 2.35592285 0.15597656 3.56958008 0.23632812 C4.82923584 0.32849609 6.0888916 0.42066406 7.38671875 0.515625 C8.68311279 0.60779297 9.97950684 0.69996094 11.31518555 0.79492188 C22.15537912 1.60928368 32.88313943 2.89456428 43.640625 4.43505859 C45.80448589 4.72898593 47.96384378 4.97640484 50.13671875 5.19140625 C68.78723545 7.11474079 87.314563 11.22102523 104.07421875 19.765625 C104.73421875 20.095625 105.39421875 20.425625 106.07421875 20.765625 C106.07421875 21.425625 106.07421875 22.085625 106.07421875 22.765625 C106.67234375 22.971875 107.27046875 23.178125 107.88671875 23.390625 C110.97429089 25.33138463 111.64389435 27.42820141 113.07421875 30.765625 C113.64950984 33.32803263 114.11979568 35.8032607 114.51171875 38.390625 C114.63893311 39.11556152 114.76614746 39.84049805 114.8972168 40.58740234 C115.62546761 44.74367468 116.20674128 48.88289155 116.66015625 53.078125 C117.43100245 61.86218728 117.43100245 61.86218728 121.57617188 69.29296875 C125.42996774 71.96459246 129.6196449 73.34752251 134.07421875 74.765625 C135.06421875 75.425625 136.05421875 76.085625 137.07421875 76.765625 C137.07421875 77.425625 137.07421875 78.085625 137.07421875 78.765625 C137.67234375 78.9925 138.27046875 79.219375 138.88671875 79.453125 C142.42681617 81.57718345 143.76762057 84.57667133 144.78198242 88.51025391 C144.9338501 89.49429199 145.08571777 90.47833008 145.2421875 91.4921875 C145.49971802 93.15048584 145.49971802 93.15048584 145.76245117 94.84228516 C150.60918508 129.28846151 150.60918508 129.28846151 145.32421875 137.015625 C140.71515857 141.72794315 134.90210259 144.80177367 129.07421875 147.765625 C128.08550781 148.30445313 127.09679687 148.84328125 126.078125 149.3984375 C122.97644598 150.81012496 120.42870626 151.25082741 117.07421875 151.765625 C114.21348058 152.59853539 111.39896654 153.56872273 108.57421875 154.515625 C98.69453315 157.73789842 88.68249465 160.06855614 78.52636719 162.23632812 C76.23748181 162.73038463 73.95724234 163.25420685 71.67578125 163.78125 C60.35236778 166.28024434 48.89947309 167.53310431 37.38671875 168.765625 C35.08526672 169.01487798 32.78392506 169.26512071 30.4826355 169.51586914 C28.95028251 169.68261927 27.41783135 169.84846954 25.88528442 170.01342773 C21.54192043 170.48373676 17.20480477 170.98611175 12.8711853 171.53930664 C-3.50278772 173.52716221 -19.80056706 173.93645917 -36.27734375 173.96875 C-37.27115429 173.97157738 -38.26496483 173.97440475 -39.28889084 173.97731781 C-44.55717978 173.99219554 -49.82544219 174.00149471 -55.09375 174.00585938 C-59.37346 174.01022535 -63.6529663 174.0240607 -67.93261719 174.046875 C-91.40618261 174.16957825 -114.50533623 173.97220667 -137.83021545 171.11839294 C-141.95662134 170.64815137 -146.08807898 170.32559935 -150.22981262 170.02435303 C-161.70277744 169.18928498 -172.90272696 167.3925014 -184.19995117 165.26245117 C-187.06143857 164.74089928 -189.92879222 164.27638518 -192.80078125 163.81640625 C-199.17003072 162.76366316 -205.4497662 161.40738809 -211.73828125 159.953125 C-212.87177002 159.69176758 -214.00525879 159.43041016 -215.1730957 159.16113281 C-222.5603838 157.41922136 -229.73428867 155.40927503 -236.875 152.84375 C-240.19795471 151.66944078 -243.52984555 150.70538079 -246.92578125 149.765625 C-246.92578125 149.105625 -246.92578125 148.445625 -246.92578125 147.765625 C-247.63863281 147.66507813 -248.35148437 147.56453125 -249.0859375 147.4609375 C-252.32325634 146.66830648 -254.54986432 145.42046039 -257.36328125 143.640625 C-258.26949219 143.08117187 -259.17570312 142.52171875 -260.109375 141.9453125 C-268.21766128 135.6701062 -268.21766128 135.6701062 -269.46362305 130.55957031 C-269.66727558 127.99560331 -269.6530345 125.5231987 -269.55078125 122.953125 C-269.52894775 122.01259277 -269.50711426 121.07206055 -269.48461914 120.10302734 C-269.19938109 112.3234612 -268.39722246 104.60351939 -267.36328125 96.890625 C-267.16629639 95.26096802 -267.16629639 95.26096802 -266.96533203 93.59838867 C-265.62267919 84.83979395 -262.24758948 80.09701884 -255.30078125 74.7421875 C-250.56142349 72.04511878 -246.26902877 69.92720055 -240.92578125 68.765625 C-240.80968506 68.06107178 -240.69358887 67.35651855 -240.57397461 66.63061523 C-239.25852211 58.68802831 -237.90490244 50.75330921 -236.48828125 42.828125 C-236.28396484 41.63638672 -236.07964844 40.44464844 -235.86914062 39.21679688 C-235.55879883 37.49493164 -235.55879883 37.49493164 -235.2421875 35.73828125 C-235.06115479 34.70968994 -234.88012207 33.68109863 -234.69360352 32.62133789 C-232.99832448 26.31619357 -229.27011335 22.26033801 -223.92578125 18.765625 C-199.63348497 6.07561948 -169.91295891 4.84140997 -143.16239929 2.00683594 C-140.83000555 1.75529595 -138.49962966 1.48830654 -136.16894531 1.22143555 C-131.35381539 0.6858178 -126.58124345 0.47127993 -121.73828125 0.390625 C-120.87525391 0.35324219 -120.01222656 0.31585938 -119.12304688 0.27734375 C-114.91131243 0.21933976 -111.85316412 0.32877438 -108.42578125 2.9375 C-105.21359584 6.57128475 -104.51600022 9.60889865 -103.46875 14.2421875 C-101.35686441 17.69605609 -99.20651864 18.14573037 -95.40258789 19.2109375 C-91.62908063 20.05602459 -87.89973372 20.5972259 -84.05078125 20.953125 C-83.23561035 21.03280518 -82.42043945 21.11248535 -81.58056641 21.19458008 C-72.68998016 21.98847379 -63.84173885 22.02328973 -54.92578125 21.765625 C-53.81541504 21.73662109 -53.81541504 21.73662109 -52.68261719 21.70703125 C-35.32779898 21.70865803 -35.32779898 21.70865803 -20.0625 15.375 C-17.68861569 12.84134899 -17.68861569 12.84134899 -16.98828125 9.265625 C-15.56879347 4.58966526 -13.92621799 3.48592198 -9.92578125 0.765625 C-6.55281884 -0.4310434 -3.54490716 -0.23663612 0 0 Z " fill="#603C26" transform="translate(600.92578125,286.234375)"/>
<path d="M0 0 C3.73297721 -0.19091665 6.23275156 0.2945756 9.63671875 1.80859375 C14.93027961 4.03359407 20.26556115 5.60262501 25.8125 7.0625 C26.78098877 7.32071533 27.74947754 7.57893066 28.74731445 7.8449707 C31.49587721 8.57266 34.24703269 9.2891798 37 10 C38.20398438 10.31195313 39.40796875 10.62390625 40.6484375 10.9453125 C49.19996653 13.03373219 57.86537777 14.32924944 66.56445312 15.625 C68.82469232 15.97300796 71.07581325 16.35435146 73.328125 16.75 C86.71106882 19.02838915 100.18588204 19.99903645 113.7121582 20.99804688 C114.5191214 21.05773651 115.32608459 21.11742615 116.15750122 21.17892456 C117.67068368 21.28988827 119.18400148 21.39902957 120.69747925 21.50588989 C124.20311931 21.75977334 127.68209884 22.07707934 131.16999817 22.51324463 C135.95023915 23.04837187 140.66638945 23.14112674 145.47265625 23.12939453 C146.37325272 23.13114685 147.27384918 23.13289917 148.20173645 23.13470459 C151.15534439 23.139076 154.10889153 23.13619977 157.0625 23.1328125 C159.13883475 23.13348736 161.21516942 23.1344589 163.29150391 23.13571167 C167.6388423 23.13718268 171.9861601 23.13505503 176.33349609 23.13037109 C181.85924441 23.12470273 187.38494383 23.1279382 192.91069031 23.13394356 C197.20054479 23.13758976 201.49038806 23.13639164 205.78024292 23.13381577 C207.81484991 23.13315618 209.84945798 23.13394038 211.88406372 23.13629532 C228.52812254 23.15132242 244.94571527 22.48479935 261.5 20.625 C262.68271484 20.49488525 263.86542969 20.36477051 265.08398438 20.23071289 C268.72344704 19.82716299 272.36186634 19.41535031 276 19 C277.15886719 18.86803223 278.31773437 18.73606445 279.51171875 18.60009766 C282.84180867 18.21801066 286.17107344 17.82958482 289.5 17.4375 C290.48291016 17.32293457 291.46582031 17.20836914 292.47851562 17.09033203 C301.6088898 15.99338012 310.67693385 14.61656632 319.640625 12.54492188 C322.41125883 11.90501555 325.18969205 11.3053706 327.96875 10.703125 C338.82690474 8.30297095 349.50659695 5.93376663 359.8359375 1.74121094 C363.6326521 0.24511515 366.06998375 -0.26509094 370 1 C369.81824219 2.06992187 369.63648438 3.13984375 369.44921875 4.2421875 C367.89119587 13.63852183 366.6058701 23.03243543 365.5625 32.5 C364.40958959 42.96015479 362.97962558 53.35621929 361.35766602 63.75390625 C360.31841909 70.49116458 359.52874519 77.20317487 359 84 C358.34 84 357.68 84 357 84 C356.938125 85.19625 356.87625 86.3925 356.8125 87.625 C356.20330339 92.17794308 354.49310241 95.03933352 351 98 C330.04343958 113.2588736 299.35540231 117.79397129 274.25 121.6875 C272.39179423 121.98419515 270.53372063 122.28171933 268.67578125 122.58007812 C239.59396675 127.22131081 239.59396675 127.22131081 226.375 127.625 C224.6739209 127.67974487 224.6739209 127.67974487 222.93847656 127.7355957 C191.08680751 128.60099801 158.84280361 129.27256782 127.09472656 126.20251465 C125.6294941 126.06085843 124.16397134 125.92218762 122.69824219 125.7857666 C102.99348364 123.94762133 83.64925385 121.40275574 64.4375 116.5625 C63.71453735 116.38153778 62.99157471 116.20057556 62.2467041 116.01412964 C23.0079979 106.04551435 23.0079979 106.04551435 13.1875 92.5 C11.98849471 89.97577833 11.39405453 87.75838173 11 85 C10.01 85 9.02 85 8 85 C8.99 84.01 8.99 84.01 10 83 C10.08665487 80.73148533 10.08665487 80.73148533 9.734375 78.12890625 C9.62416016 77.1352002 9.51394531 76.14149414 9.40039062 75.11767578 C8.74918392 70.04699917 8.01259119 64.99249806 7.25 59.9375 C5.36253893 47.10883031 3.77497703 34.25126146 2.25 21.375 C2.13740845 20.42760956 2.02481689 19.48021912 1.90881348 18.50411987 C1.58839298 15.80244051 1.27014547 13.10051777 0.953125 10.3984375 C0.85644531 9.5788707 0.75976562 8.75930389 0.66015625 7.91490173 C0 2.23570815 0 2.23570815 0 0 Z " fill="#F9ECDA" transform="translate(355,436)"/>
<path d="M0 0 C4.14723592 1.5997299 7.87506277 3.60825856 11.6875 5.875 C20.15866672 10.80086748 28.8359709 14.03434033 38.14453125 17.06640625 C39.83525943 17.61918879 41.52210247 18.18454421 43.19921875 18.77734375 C82.14033283 32.49945062 126.15031726 32.90042994 167 32 C168.04075684 31.97921387 169.08151367 31.95842773 170.15380859 31.93701172 C182.92595464 31.63583448 195.41115983 30.13164392 208 28 C209.73950928 27.71213623 209.73950928 27.71213623 211.51416016 27.41845703 C250.97387558 20.97633105 250.97387558 20.97633105 285.7578125 2.76953125 C288 1 288 1 291 1 C294.1195131 7.2390262 290.4082031 18.85888822 289.4765625 25.640625 C289.25629898 27.26674713 289.25629898 27.26674713 289.03158569 28.92572021 C288.56498005 32.36745779 288.09514341 35.80874408 287.625 39.25 C287.16448875 42.63485483 286.70467793 46.01980344 286.24543762 49.40483093 C285.94162824 51.64211492 285.63685195 53.87926783 285.33110046 56.11628723 C284.59044923 61.55303867 283.86973886 66.99097811 283.19458008 72.4362793 C283.00156815 73.97665863 283.00156815 73.97665863 282.80465698 75.54815674 C282.56690163 77.45704343 282.33404656 79.36655071 282.10745239 81.27679443 C281.1368789 89.03579039 279.27191471 96.4424277 277.12109375 103.94921875 C276.20568378 107.15573539 275.53149464 110.32973323 275 113.625 C274.04584929 118.70496908 271.85155028 122.72666834 269 127 C268.38705078 127.92619141 268.38705078 127.92619141 267.76171875 128.87109375 C251.52901201 150.37105046 211.52886405 155.77403565 187.171875 159.6015625 C136.78804281 165.93056605 71.90021319 163.38765101 29 133 C29 132.34 29 131.68 29 131 C28.40445312 130.75894531 27.80890625 130.51789063 27.1953125 130.26953125 C24.56286991 128.74721124 23.51070479 127.23526009 21.875 124.6875 C21.37742187 123.92824219 20.87984375 123.16898438 20.3671875 122.38671875 C17.94021596 118.14991986 16.77450012 114.324858 16.125 109.5 C15.4791109 105.25914398 14.53063635 101.41809406 13.11328125 97.375 C10.25931891 88.26814823 9.24231397 78.94366596 8.0625 69.5 C7.80960597 67.54135481 7.55617827 65.58277845 7.30224609 63.62426758 C4.5843503 42.44968653 2.26003295 21.22762494 0 0 Z " fill="#F9ECDA" transform="translate(393,746)"/>
<path d="M0 0 C0.88365234 0.00902344 1.76730469 0.01804687 2.67773438 0.02734375 C4.84777359 0.05080363 7.01767247 0.08667135 9.1875 0.125 C9.1875 0.785 9.1875 1.445 9.1875 2.125 C9.744375 2.26035156 10.30125 2.39570312 10.875 2.53515625 C18.3571143 4.64582025 22.79214174 8.72964174 28.1875 14.125 C28.3125 16.75 28.3125 16.75 28.1875 19.125 C29.1775 19.125 30.1675 19.125 31.1875 19.125 C31.8475 20.775 32.5075 22.425 33.1875 24.125 C36.51651247 21.90565836 36.93773244 20.77816671 38.1875 17.125 C38.8475 17.125 39.5075 17.125 40.1875 17.125 C40.1875 16.135 40.1875 15.145 40.1875 14.125 C40.8475 14.125 41.5075 14.125 42.1875 14.125 C42.44144531 13.54105469 42.69539062 12.95710937 42.95703125 12.35546875 C45.34173538 8.03271935 49.51664627 3.98688901 54.26953125 2.453125 C56.1875 2.1875 56.1875 2.1875 59.1875 2.125 C59.1875 1.465 59.1875 0.805 59.1875 0.125 C61.87610931 0.01612493 64.56023158 -0.06270594 67.25 -0.125 C68.00216797 -0.15851562 68.75433594 -0.19203125 69.52929688 -0.2265625 C75.2919387 -0.32634851 78.3767149 0.97878313 83.1875 4.125 C83.93 4.29 84.6725 4.455 85.4375 4.625 C88.04564969 5.37018562 88.84535546 6.84335429 90.1875 9.125 C90.1875 10.115 90.1875 11.105 90.1875 12.125 C91.1775 12.125 92.1675 12.125 93.1875 12.125 C93.661875 13.23875 94.13625 14.3525 94.625 15.5 C95.44056463 17.39210994 96.26606355 19.28212709 97.1875 21.125 C97.27092159 22.57348582 97.29482861 24.02570869 97.28515625 25.4765625 C97.28032227 26.75273438 97.28032227 26.75273438 97.27539062 28.0546875 C97.26282227 29.38886719 97.26282227 29.38886719 97.25 30.75 C97.24548828 31.6471875 97.24097656 32.544375 97.23632812 33.46875 C97.22452591 35.68756648 97.20806155 37.90625018 97.1875 40.125 C96.5275 40.125 95.8675 40.125 95.1875 40.125 C95.27 40.94226563 95.3525 41.75953125 95.4375 42.6015625 C95.10794522 47.24622516 93.35854263 50.44396428 91.1875 54.5 C90.61515625 55.60408203 90.61515625 55.60408203 90.03125 56.73046875 C89.09418265 58.5343234 88.14230793 60.33047259 87.1875 62.125 C86.5275 62.125 85.8675 62.125 85.1875 62.125 C84.5275 64.435 83.8675 66.745 83.1875 69.125 C82.1975 69.125 81.2075 69.125 80.1875 69.125 C80.1875 69.785 80.1875 70.445 80.1875 71.125 C79.5275 71.125 78.8675 71.125 78.1875 71.125 C78.1875 72.115 78.1875 73.105 78.1875 74.125 C77.5275 74.125 76.8675 74.125 76.1875 74.125 C76.1875 75.115 76.1875 76.105 76.1875 77.125 C74 79.5 74 79.5 71.1875 82.125 C70.341875 83.011875 69.49625 83.89875 68.625 84.8125 C66.46542841 86.86132433 64.83368413 87.89641451 62.1875 89.125 C61.8575 89.785 61.5275 90.445 61.1875 91.125 C60.5275 91.125 59.8675 91.125 59.1875 91.125 C59.1875 91.785 59.1875 92.445 59.1875 93.125 C58.5275 93.125 57.8675 93.125 57.1875 93.125 C57.1875 93.785 57.1875 94.445 57.1875 95.125 C55.8125 96.75 55.8125 96.75 54.1875 98.125 C53.5275 98.125 52.8675 98.125 52.1875 98.125 C52.1875 98.785 52.1875 99.445 52.1875 100.125 C50.20803408 101.48863208 48.2055755 102.81918644 46.1875 104.125 C45.630625 104.7025 45.07375 105.28 44.5 105.875 C43.1875 107.125 43.1875 107.125 40.1875 107.125 C40.1875 107.785 40.1875 108.445 40.1875 109.125 C36.75084285 111.23986594 34.18849981 111.51378104 30.1875 111.125 C27.51953125 109.41015625 27.51953125 109.41015625 25 107.1875 C21.45102561 104.04596923 21.45102561 104.04596923 17.1875 102.125 C15.47641311 100.50397032 13.81496694 98.82996537 12.1875 97.125 C9.66482101 94.53925404 7.22856505 92.15693948 4.375 89.9375 C3.653125 89.339375 2.93125 88.74125 2.1875 88.125 C2.1875 87.465 2.1875 86.805 2.1875 86.125 C0.7025 85.63 0.7025 85.63 -0.8125 85.125 C-0.8125 84.135 -0.8125 83.145 -0.8125 82.125 C-1.451875 81.856875 -2.09125 81.58875 -2.75 81.3125 C-4.8125 80.125 -4.8125 80.125 -5.8125 77.125 C-6.4725 76.795 -7.1325 76.465 -7.8125 76.125 C-7.8125 75.465 -7.8125 74.805 -7.8125 74.125 C-9.2975 73.63 -9.2975 73.63 -10.8125 73.125 C-10.8125 72.135 -10.8125 71.145 -10.8125 70.125 C-11.43125 69.8775 -12.05 69.63 -12.6875 69.375 C-15.16318687 67.91871361 -15.76375002 66.74687494 -16.8125 64.125 C-17.4725 64.125 -18.1325 64.125 -18.8125 64.125 C-19.8025 61.155 -20.7925 58.185 -21.8125 55.125 C-22.4725 55.125 -23.1325 55.125 -23.8125 55.125 C-26.24410605 51.75816085 -26.8125 50.39149636 -26.8125 46.125 C-27.4725 46.125 -28.1325 46.125 -28.8125 46.125 C-28.8125 37.215 -28.8125 28.305 -28.8125 19.125 C-28.1525 19.125 -27.4925 19.125 -26.8125 19.125 C-26.68875 18.3825 -26.565 17.64 -26.4375 16.875 C-25.42215425 12.40747871 -23.81929113 9.81713832 -20.3125 6.875 C-19.7040625 6.35421875 -19.095625 5.8334375 -18.46875 5.296875 C-16.8125 4.125 -16.8125 4.125 -14.8125 4.125 C-14.8125 3.465 -14.8125 2.805 -14.8125 2.125 C-9.96827153 -0.42248246 -5.32089624 -0.10316428 0 0 Z " fill="#D56547" transform="translate(505.8125,614.875)"/>
<path d="M0 0 C0.99 0.99 0.99 0.99 2 2 C0.68 3.32 -0.64 4.64 -2 6 C-0.90171875 6.02578125 0.1965625 6.0515625 1.328125 6.078125 C25.1233939 6.83297122 50.15297914 8.44945658 73.0234375 15.40625 C74.97491118 15.99246344 76.9344089 16.51825069 78.90625 17.03125 C89.85063366 20.03369153 89.85063366 20.03369153 93 25 C93 27.90564437 92.60910658 29.29704316 90.70703125 31.4921875 C84.43133458 37.03548021 76.41463022 38.83018889 68.39453125 40.32421875 C65.01901393 40.93505335 65.01901393 40.93505335 61.89160156 41.96386719 C57.43543359 43.25221445 52.93981587 43.74313195 48.33984375 44.25390625 C47.43174454 44.35968491 46.52364532 44.46546356 45.58802795 44.57444763 C42.7051202 44.90928259 39.82138811 45.23622685 36.9375 45.5625 C34.0502367 45.8938569 31.16317334 46.22686904 28.27626038 46.56126404 C26.48567959 46.76816884 24.69486621 46.97307362 22.90379333 47.17567444 C19.5865293 47.55522508 16.3044941 47.94534657 13.01708984 48.53540039 C8.75408176 49.1918581 4.50578008 49.37318428 0.19921875 49.5546875 C-0.79298172 49.59673309 -1.78518219 49.63877869 -2.80744934 49.68209839 C-15.80809051 50.1745399 -28.81470782 50.15088445 -41.82250977 50.13037109 C-45.44438462 50.12470116 -49.0661856 50.1280604 -52.6880579 50.13379478 C-76.9600802 50.16668738 -101.26643145 50.10113043 -125.41381836 47.38037109 C-127.72980044 47.12024898 -130.04717643 46.87757474 -132.36523438 46.63671875 C-145.25512117 45.26089774 -158.39120743 43.76352216 -170.73828125 39.67578125 C-173.1891942 38.94347047 -175.60115905 38.53354914 -178.125 38.125 C-183.11204341 37.18894611 -187.08466971 35.23398605 -191 32 C-193 29 -193 29 -192.9375 26.5625 C-191.38757253 22.32603158 -188.09014128 20.52285308 -184.125 18.62109375 C-182.578125 18.03521484 -182.578125 18.03521484 -181 17.4375 C-179.989375 17.04433594 -178.97875 16.65117187 -177.9375 16.24609375 C-167.24029552 12.63317896 -155.94794016 11.01832617 -144.8125 9.375 C-144.07986938 9.2653894 -143.34723877 9.15577881 -142.59240723 9.04284668 C-130.40602619 7.24115185 -118.40582222 6.34140513 -106.078125 6.140625 C-102.29397494 6.0775101 -98.71664259 5.78378177 -95 5 C-94.81566406 5.68707031 -94.63132812 6.37414062 -94.44140625 7.08203125 C-94.15136719 7.98308594 -93.86132812 8.88414062 -93.5625 9.8125 C-93.29566406 10.70582031 -93.02882813 11.59914063 -92.75390625 12.51953125 C-89.6839689 16.86120212 -84.82242171 17.46972305 -79.79223633 18.41479492 C-77.57179655 18.73938832 -75.35944364 18.98088886 -73.125 19.1875 C-72.3098291 19.26718018 -71.4946582 19.34686035 -70.65478516 19.42895508 C-61.76419891 20.22284879 -52.9159576 20.25766473 -44 20 C-42.88963379 19.97099609 -42.88963379 19.97099609 -41.75683594 19.94140625 C-24.40475422 19.94339272 -24.40475422 19.94339272 -9.140625 13.61328125 C-6.76137009 11.06498914 -6.76137009 11.06498914 -6 7.4375 C-4.82907933 3.41246018 -3.43860074 2.26223733 0 0 Z " fill="#623E28" transform="translate(590,288)"/>
<path d="M0 0 C3.73297721 -0.19091665 6.23275156 0.2945756 9.63671875 1.80859375 C14.93027961 4.03359407 20.26556115 5.60262501 25.8125 7.0625 C26.78098877 7.32071533 27.74947754 7.57893066 28.74731445 7.8449707 C31.49587721 8.57266 34.24703269 9.2891798 37 10 C38.20398438 10.31195313 39.40796875 10.62390625 40.6484375 10.9453125 C49.19996653 13.03373219 57.86537777 14.32924944 66.56445312 15.625 C68.82469232 15.97300796 71.07581325 16.35435146 73.328125 16.75 C86.71106882 19.02838915 100.18588204 19.99903645 113.7121582 20.99804688 C114.5191214 21.05773651 115.32608459 21.11742615 116.15750122 21.17892456 C117.67068368 21.28988827 119.18400148 21.39902957 120.69747925 21.50588989 C124.20311931 21.75977334 127.68209884 22.07707934 131.16999817 22.51324463 C135.95023915 23.04837187 140.66638945 23.14112674 145.47265625 23.12939453 C146.37325272 23.13114685 147.27384918 23.13289917 148.20173645 23.13470459 C151.15534439 23.139076 154.10889153 23.13619977 157.0625 23.1328125 C159.13883475 23.13348736 161.21516942 23.1344589 163.29150391 23.13571167 C167.6388423 23.13718268 171.9861601 23.13505503 176.33349609 23.13037109 C181.85924441 23.12470273 187.38494383 23.1279382 192.91069031 23.13394356 C197.20054479 23.13758976 201.49038806 23.13639164 205.78024292 23.13381577 C207.81484991 23.13315618 209.84945798 23.13394038 211.88406372 23.13629532 C228.52812254 23.15132242 244.94571527 22.48479935 261.5 20.625 C262.68271484 20.49488525 263.86542969 20.36477051 265.08398438 20.23071289 C268.72344704 19.82716299 272.36186634 19.41535031 276 19 C277.15886719 18.86803223 278.31773437 18.73606445 279.51171875 18.60009766 C282.84180867 18.21801066 286.17107344 17.82958482 289.5 17.4375 C290.48291016 17.32293457 291.46582031 17.20836914 292.47851562 17.09033203 C301.6088898 15.99338012 310.67693385 14.61656632 319.640625 12.54492188 C322.41125883 11.90501555 325.18969205 11.3053706 327.96875 10.703125 C338.82690474 8.30297095 349.50659695 5.93376663 359.8359375 1.74121094 C363.6326521 0.24511515 366.06998375 -0.26509094 370 1 C369.81824219 2.06992187 369.63648438 3.13984375 369.44921875 4.2421875 C367.89119587 13.63852183 366.6058701 23.03243543 365.5625 32.5 C364.40958959 42.96015479 362.97962558 53.35621929 361.35766602 63.75390625 C360.31841909 70.49116458 359.52874519 77.20317487 359 84 C358.34 84 357.68 84 357 84 C356.938125 85.19625 356.87625 86.3925 356.8125 87.625 C356.20418804 92.17133145 354.50210133 95.05505116 351 98 C345.98859348 101.49127988 340.94748022 104.43487363 335 106 C335.67747354 96.30748145 336.84116217 86.68979635 338.04165649 77.05172729 C338.60688811 72.51295315 339.16454508 67.97324805 339.72265625 63.43359375 C339.88791054 62.09141533 339.88791054 62.09141533 340.0565033 60.72212219 C341.43650711 49.48898003 342.73005049 38.24609088 344 27 C343.32533691 27.20681396 342.65067383 27.41362793 341.95556641 27.62670898 C338.84821867 28.57326718 335.73672622 29.50544132 332.625 30.4375 C331.56410156 30.76298828 330.50320313 31.08847656 329.41015625 31.42382812 C323.61403961 33.14843952 318.18542848 34.4159261 312.13427734 34.71118164 C309.7298077 35.03656343 308.15069946 35.90435571 306 37 C303.83129883 37.45483398 303.83129883 37.45483398 301.45703125 37.74609375 C300.56064941 37.85969238 299.66426758 37.97329102 298.74072266 38.09033203 C297.77440918 38.20489746 296.8080957 38.31946289 295.8125 38.4375 C294.2972876 38.62481689 294.2972876 38.62481689 292.75146484 38.81591797 C290.60211528 39.08049904 288.45236001 39.34180163 286.30224609 39.60009766 C283.03957993 39.99520687 279.77952174 40.40766167 276.51953125 40.82421875 C265.85773414 42.16920555 255.26264976 43.33161127 244.5234375 43.7890625 C241.04028265 43.94116527 241.04028265 43.94116527 237.78814697 44.50410461 C233.79328374 45.02706063 229.88583015 45.14777971 225.86621094 45.14526367 C225.08260193 45.14862228 224.29899292 45.1519809 223.49163818 45.15544128 C220.90586741 45.16491436 218.32016206 45.16689491 215.734375 45.16796875 C213.9000852 45.17119204 212.06579564 45.17455687 210.23150635 45.17805481 C206.37145396 45.18404291 202.5114239 45.18589585 198.65136719 45.18530273 C194.76720406 45.1852226 190.88316169 45.19198003 186.99902344 45.20581055 C156.00086857 45.3144518 125.07565503 44.78978481 94.25 41.1875 C93.15120514 41.06352341 93.15120514 41.06352341 92.0302124 40.93704224 C79.91946132 39.55902752 68.09848094 37.47027877 56.25683594 34.54638672 C53.10410515 33.78310118 49.92899193 33.14380042 46.75 32.5 C38.08649605 30.65873933 29.54899488 28.30585896 21 26 C21 25.34 21 24.68 21 24 C19.7934375 23.9071875 19.7934375 23.9071875 18.5625 23.8125 C14.5362071 22.89422267 11.65710208 21.27375985 8.1484375 19.15625 C6.08106248 18.04362635 4.29189716 17.45630532 2 17 C1.66507287 14.54187409 1.3319903 12.08352273 1 9.625 C0.90460938 8.92632812 0.80921875 8.22765625 0.7109375 7.5078125 C0 2.2265625 0 2.2265625 0 0 Z " fill="#EDD8BC" transform="translate(355,436)"/>
<path d="M0 0 C3.1195131 6.2390262 -0.5917969 17.85888822 -1.5234375 24.640625 C-1.74370102 26.26674713 -1.74370102 26.26674713 -1.96841431 27.92572021 C-2.43501995 31.36745779 -2.90485659 34.80874408 -3.375 38.25 C-3.83551125 41.63485483 -4.29532207 45.01980344 -4.75456238 48.40483093 C-5.05837176 50.64211492 -5.36314805 52.87926783 -5.66889954 55.11628723 C-6.40955077 60.55303867 -7.13026114 65.99097811 -7.80541992 71.4362793 C-7.99843185 72.97665863 -7.99843185 72.97665863 -8.19534302 74.54815674 C-8.43309837 76.45704343 -8.66595344 78.36655071 -8.89254761 80.27679443 C-9.8631211 88.03579039 -11.72808529 95.4424277 -13.87890625 102.94921875 C-14.79431622 106.15573539 -15.46850536 109.32973323 -16 112.625 C-16.95415071 117.70496908 -19.14844972 121.72666834 -22 126 C-22.61294922 126.92619141 -22.61294922 126.92619141 -23.23828125 127.87109375 C-39.47098799 149.37105046 -79.47113595 154.77403565 -103.828125 158.6015625 C-154.21195719 164.93056605 -219.09978681 162.38765101 -262 132 C-262 131.34 -262 130.68 -262 130 C-262.59554688 129.75894531 -263.19109375 129.51789063 -263.8046875 129.26953125 C-266.43713009 127.74721124 -267.48929521 126.23526009 -269.125 123.6875 C-269.62257813 122.92824219 -270.12015625 122.16898438 -270.6328125 121.38671875 C-273.11863868 117.04717648 -274.25898308 113.71186541 -274.125 108.6875 C-274.09792969 107.36298828 -274.09792969 107.36298828 -274.0703125 106.01171875 C-274.04710937 105.34785156 -274.02390625 104.68398438 -274 104 C-273.01 104 -272.02 104 -271 104 C-269.60406499 105.66831257 -268.20926815 107.33759104 -266.8203125 109.01171875 C-250.4969874 126.84127342 -219.89298535 133.36026432 -197 137 C-195.84822266 137.18336914 -194.69644531 137.36673828 -193.50976562 137.55566406 C-163.96254911 142.07258206 -134.00467806 143.11918481 -104.41308594 138.36279297 C-102.17424307 138.0261964 -99.9493405 137.77366713 -97.6953125 137.56640625 C-81.58272942 136.01896015 -64.94012201 131.28121937 -51.1875 122.5625 C-50.29417969 122.00691406 -49.40085937 121.45132813 -48.48046875 120.87890625 C-45.81566621 118.86037079 -44.06359822 116.60971315 -42 114 C-41.34 114 -40.68 114 -40 114 C-39.62875 113.0409375 -39.62875 113.0409375 -39.25 112.0625 C-38.57048278 110.39768282 -37.87024336 108.73847472 -37.07104492 107.12768555 C-34.13726856 101.08944291 -32.95600595 95.37156396 -32.0625 88.75 C-31.90483154 87.65679443 -31.74716309 86.56358887 -31.5847168 85.43725586 C-31.14130859 82.32955195 -30.71147815 79.22032007 -30.28833008 76.10980225 C-29.98050273 73.85733232 -29.66751958 71.60562085 -29.35351562 69.35400391 C-28.66649465 64.42441236 -27.98715243 59.49379892 -27.3125 54.5625 C-27.20390656 53.76976685 -27.09531311 52.97703369 -26.98342896 52.16027832 C-25.89967943 44.21257582 -24.83538427 36.27945524 -24.23510742 28.27709961 C-24 26 -24 26 -23.4777832 23.44360352 C-22.85790386 20.27325487 -22.93683694 17.22131612 -23 14 C-24.65 14 -26.3 14 -28 14 C-25.68023674 12.45349116 -23.67365008 11.3250832 -21.1640625 10.1953125 C-20.42929687 9.85886719 -19.69453125 9.52242187 -18.9375 9.17578125 C-17.40524716 8.47953798 -15.87140448 7.78678222 -14.3359375 7.09765625 C-9.63251775 4.9350699 -4.93577376 0 0 0 Z " fill="#EED9BD" transform="translate(684,747)"/>
<path d="M0 0 C1.76694214 0.11698242 1.76694214 0.11698242 3.56958008 0.23632812 C4.82923584 0.32849609 6.0888916 0.42066406 7.38671875 0.515625 C8.68311279 0.60779297 9.97950684 0.69996094 11.31518555 0.79492188 C22.15537912 1.60928368 32.88313943 2.89456428 43.640625 4.43505859 C45.80448589 4.72898593 47.96384378 4.97640484 50.13671875 5.19140625 C58.78099238 6.08284697 67.10661167 7.76742003 75.57421875 9.703125 C76.68514893 9.95618408 77.7960791 10.20924316 78.94067383 10.4699707 C84.84991555 11.86245788 90.44890001 13.47863255 96.07421875 15.765625 C95.74421875 16.425625 95.41421875 17.085625 95.07421875 17.765625 C96.07001953 18.22001953 96.07001953 18.22001953 97.0859375 18.68359375 C106.91964462 23.34922121 106.91964462 23.34922121 110.07421875 27.765625 C110.82421875 31.203125 110.82421875 31.203125 110.07421875 34.765625 C103.96416677 42.76317712 92.17080566 46.40575661 83.07421875 49.765625 C82.21828125 50.09175781 81.36234375 50.41789062 80.48046875 50.75390625 C75.66263351 52.18489172 70.77829447 52.94950957 65.82421875 53.765625 C63.83963058 54.09768681 61.85525312 54.43101051 59.87109375 54.765625 C58.89180908 54.93054443 57.91252441 55.09546387 56.90356445 55.26538086 C54.33196583 55.72005387 51.78179968 56.23168301 49.2265625 56.76953125 C-15.69178144 69.9018191 -88.14423533 68.15494072 -153.53173828 59.08886719 C-155.76373168 58.78750483 -157.99588627 58.52128699 -160.234375 58.2734375 C-212.20906498 52.40117322 -212.20906498 52.40117322 -229.92578125 37.765625 C-232.27581626 34.24057249 -232.61017232 32.2605911 -232.46875 28.10546875 C-231.59282537 24.33080076 -229.64456437 22.66375 -226.6015625 20.3828125 C-202.43902238 5.77946709 -170.53567915 4.90739538 -143.16239929 2.00683594 C-140.83000555 1.75529595 -138.49962966 1.48830654 -136.16894531 1.22143555 C-131.35381539 0.6858178 -126.58124345 0.47127993 -121.73828125 0.390625 C-120.87525391 0.35324219 -120.01222656 0.31585938 -119.12304688 0.27734375 C-114.65992118 0.2158776 -111.82433163 0.37128741 -108.3125 3.2890625 C-107.52488281 4.10632813 -106.73726563 4.92359375 -105.92578125 5.765625 C-109.14814931 8.98799306 -112.40270556 8.88124969 -116.80859375 8.90625 C-129.89935852 9.1170462 -142.6138904 10.16541168 -155.55078125 12.078125 C-156.24995667 12.17895386 -156.94913208 12.27978271 -157.66949463 12.38366699 C-182.61941661 15.03777319 -182.61941661 15.03777319 -202.92578125 26.765625 C-202.78543707 29.57250865 -202.44952489 31.17053078 -200.578125 33.296875 C-194.79474016 38.43766152 -187.66582193 39.65893578 -180.29296875 41.0546875 C-176.92578125 41.765625 -176.92578125 41.765625 -174.12963867 42.74755859 C-170.82235972 43.7984885 -167.73690184 44.32752337 -164.296875 44.765625 C-163.02561768 44.92957764 -161.75436035 45.09353027 -160.44458008 45.26245117 C-159.08422177 45.43078005 -157.72378688 45.59849102 -156.36328125 45.765625 C-154.95401988 45.94181077 -153.54475882 46.11799894 -152.13549805 46.29418945 C-148.06719437 46.79865525 -143.99696869 47.28497701 -139.92578125 47.765625 C-138.91870117 47.88470215 -137.91162109 48.0037793 -136.87402344 48.12646484 C-111.85519412 50.99920008 -86.60298336 50.93600893 -61.45141602 50.89599609 C-57.82378996 50.89027235 -54.19623673 50.89372809 -50.56861305 50.89941025 C-27.43851266 50.9306479 -4.59291144 50.66954271 18.32421875 47.265625 C21.45381638 46.81339332 24.58429001 46.36743187 27.71484375 45.921875 C28.4513063 45.81541153 29.18776886 45.70894806 29.94654846 45.59925842 C34.04105412 45.01625579 38.11711268 44.55367992 42.2421875 44.23046875 C46.39920636 43.89097492 50.14474365 43.08899914 54.13671875 41.828125 C58.25925023 40.5697155 62.26208759 39.48250807 66.51171875 38.765625 C71.04934156 37.94332103 74.18120205 36.19876044 78.07421875 33.765625 C78.73421875 33.765625 79.39421875 33.765625 80.07421875 33.765625 C80.9280898 30.45995011 80.9280898 30.45995011 81.07421875 26.765625 C78.3910381 23.32369718 75.89609928 22.07478297 71.75 20.9140625 C70.72068359 20.62015625 69.69136719 20.32625 68.63085938 20.0234375 C67.56029297 19.73210937 66.48972656 19.44078125 65.38671875 19.140625 C64.33548828 18.8415625 63.28425781 18.5425 62.20117188 18.234375 C59.16618359 17.38072553 56.12412822 16.56415054 53.07421875 15.765625 C52.35830566 15.57258789 51.64239258 15.37955078 50.90478516 15.18066406 C43.02716792 13.22885646 34.87777143 12.62273747 26.82421875 11.765625 C25.21188381 11.59044747 23.59957923 11.4149903 21.98730469 11.23925781 C10.35938437 9.97897197 -1.27589114 8.80481708 -12.92578125 7.765625 C-12.61640625 7.1675 -12.30703125 6.569375 -11.98828125 5.953125 C-10.82368421 3.67605728 -10.82368421 3.67605728 -9.92578125 0.765625 C-6.66148233 -0.58888715 -3.47088443 -0.23169482 0 0 Z " fill="#7C5239" transform="translate(600.92578125,286.234375)"/>
<path d="M0 0 C0.495 1.485 0.495 1.485 1 3 C-0.66015625 5.34765625 -0.66015625 5.34765625 -3.0625 8.0625 C-7.35415088 13.10836014 -10.80674392 18.21093575 -14 24 C-14.86625 25.4540625 -14.86625 25.4540625 -15.75 26.9375 C-20.47262337 38.50792725 -20.20488152 51.35233168 -16 63 C-12.36535109 70.35239943 -12.36535109 70.35239943 -7.28125 76.71484375 C-6 78 -6 78 -6 80 C-5.01 80.33 -4.02 80.66 -3 81 C-1.4921875 82.49609375 -1.4921875 82.49609375 0.125 84.4375 C2.86424593 87.68058187 5.67721923 90.82353761 8.5625 93.9375 C22.4513589 109.45064918 26.85691776 125.55780577 26 146 C24.82240795 161.11564873 17.41746252 172.70215305 8 184 C6.99066406 185.31291016 6.99066406 185.31291016 5.9609375 186.65234375 C2.80819845 190.42683811 -1.03377877 193.12970832 -5 196 C-6.0828125 196.78890625 -6.0828125 196.78890625 -7.1875 197.59375 C-12.2519084 201.04675573 -12.2519084 201.04675573 -16 200.8125 C-16.99 200.4103125 -16.99 200.4103125 -18 200 C-17.08586476 196.72434871 -16.25714142 194.31930164 -14.109375 191.65234375 C-5.93777671 181.37731553 -0.97699122 164.53770954 -1.6875 151.37109375 C-4.28213589 131.68429394 -14.67734727 117.36139222 -29.62109375 104.953125 C-42.09158799 94.44213069 -51.11732266 78.78697485 -52.8125 62.625 C-53.80382628 45.02895855 -47.09535473 30.83893064 -36.0234375 17.64453125 C-27.45204387 8.52640263 -13.04870874 -1.48280781 0 0 Z " fill="#E3C6A1" transform="translate(558,88)"/>
<path d="M0 0 C-0.875 7.875 -0.875 7.875 -2 9 C-2.39154606 14.09009877 -2.03187688 16.89579614 1 21 C11.05131276 28.68281491 22.9677827 31.82445662 35 35 C36.34267261 35.37158488 37.6851376 35.74392122 39.02734375 36.1171875 C62.87459904 42.46661151 87.94473951 45.74942619 112.57421875 46.7890625 C116 47 116 47 118.47094727 47.47851562 C123.59756383 48.23607031 128.71521459 48.37486954 133.890625 48.5546875 C135.07255432 48.59673309 136.25448364 48.63877869 137.472229 48.68209839 C150.54319128 49.10704809 163.61353095 49.15257192 176.68994141 49.13037109 C180.08331093 49.1246513 183.47660243 49.1280903 186.86996937 49.13380241 C208.92080451 49.16544405 230.84379146 48.55858366 252.8125 46.625 C253.55971313 46.56063751 254.30692627 46.49627502 255.07678223 46.42996216 C264.90403381 45.57687853 274.63073075 44.51212581 284.328125 42.671875 C287.88350375 42.02131633 291.40879173 41.58652314 295 41.1875 C314.94413461 38.59261797 346.04588978 34.25523786 360.296875 18.453125 C362.52654031 15.24158873 362.51145806 13.87246818 362 10 C361.11485472 6.62633199 360.09889342 3.30976233 359 0 C362.31395986 -1.08784335 362.83580335 -1.07262544 366.25 0.4375 C367.1575 0.953125 368.065 1.46875 369 2 C369.33 1.34 369.66 0.68 370 0 C370.20625 0.5775 370.4125 1.155 370.625 1.75 C372.50145055 4.82055545 374.98992391 6.0735513 378 8 C381.37730314 10.82963236 382.59077198 12.60079878 383 17 C383.20625 18.093125 383.4125 19.18625 383.625 20.3125 C382.77775461 25.31124779 380.60137386 26.97173323 376.73828125 30.08984375 C372.0700432 33.34628941 367.21944084 35.75077225 362 38 C360.89785156 38.48082031 359.79570313 38.96164062 358.66015625 39.45703125 C283.44831981 69.87889466 186.78067085 68.10142738 76.73828125 57.21875 C75.90136749 57.12603317 75.06445374 57.03331635 74.20217896 56.93778992 C68.39490319 56.26068866 62.7199198 55.19919658 57 54 C55.45108649 53.69889834 53.90167768 53.40032159 52.3515625 53.10546875 C-6.62397267 41.72281269 -6.62397267 41.72281269 -21.70703125 25.12109375 C-23.72248014 21.81478334 -23.26772547 19.2747794 -22.77734375 15.5390625 C-21.15880225 10.25236917 -16.84013063 7.36830226 -12.5625 4.1875 C-11.7890625 3.5996875 -11.7890625 3.5996875 -11 3 C-11 2.34 -11 1.68 -11 1 C-7.2297564 -1.56376565 -4.32597804 -0.83191885 0 0 Z " fill="#795037" transform="translate(360,358)"/>
<path d="M0 0 C4.08180808 2.81191223 7.95431822 6.04884893 9.41015625 10.94921875 C9.6875 12.875 9.6875 12.875 9.8125 15.9375 C10.555 15.463125 11.2975 14.98875 12.0625 14.5 C17.1179205 11.62760199 22.09582274 11.41516401 27.8125 11.9375 C32.24727272 13.26793182 36.06647509 15.0183507 38.92578125 18.80859375 C41.2893544 24.48325176 40.96349018 31.63764284 38.9609375 37.37890625 C37.75257967 39.47914724 36.45054518 41.15385081 34.8125 42.9375 C34.04486328 43.80568359 34.04486328 43.80568359 33.26171875 44.69140625 C27.5174832 50.38469514 20.20310587 53.47834655 12.98974609 56.890625 C10.77306535 57.95646118 8.58238874 59.06378307 6.39453125 60.1875 C5.67910156 60.55367432 4.96367188 60.91984863 4.2265625 61.29711914 C2.85890242 61.99858513 1.49291885 62.70333276 0.12890625 63.41186523 C-3.2904523 65.14671283 -6.37640612 66.42012397 -10.1875 66.9375 C-13.51892741 63.23042202 -14.66349788 59.03260806 -16.125 54.375 C-16.64983857 52.74830926 -17.17587725 51.12200522 -17.703125 49.49609375 C-17.95642578 48.71089355 -18.20972656 47.92569336 -18.47070312 47.11669922 C-19.37551666 44.36589348 -20.36297155 41.65051473 -21.375 38.9375 C-28.51556324 19.3980508 -28.51556324 19.3980508 -24.0625 9.6875 C-18.83699569 0.14204752 -10.45888824 -3.48629608 0 0 Z " fill="#EB8566" transform="translate(624.1875,167.0625)"/>
<path d="M0 0 C0.66 0 1.32 0 2 0 C2.309375 0.86625 2.61875 1.7325 2.9375 2.625 C9.45293269 13.28661714 24.60850421 16.68717935 36.05633545 19.50640869 C59.64134332 25.08276233 83.45789003 28.72695463 107.59384155 30.78515625 C110.14431875 31.01288609 112.69026726 31.27421282 115.23754883 31.53515625 C135.38778326 33.46917827 155.56262278 33.30613048 175.78491211 33.26074219 C180.90551333 33.24935607 186.02590649 33.25611734 191.14650059 33.26762009 C212.52331585 33.30843516 233.70896175 33.11922937 255 31 C256.63569455 30.85111481 258.27151259 30.70357783 259.9074707 30.55761719 C264.17288422 30.16751793 268.43076948 29.7251275 272.6875 29.25 C273.42816711 29.16763092 274.16883423 29.08526184 274.9319458 29.00039673 C321.40869728 25.38081778 321.40869728 25.38081778 360 4 C360.66 3.01 361.32 2.02 362 1 C362.99 1.33 363.98 1.66 365 2 C365.41922183 4.86468249 365.46766441 7.08961329 364.12109375 9.7109375 C350.94907857 27.09013364 316.43550084 31.77950698 296.5234375 34.71484375 C293.99771897 35.02605754 291.46889506 35.31316863 288.9375 35.57421875 C285.19787016 35.97860333 281.50789562 36.5209058 277.79272461 37.09936523 C268.75918569 38.48855438 259.73973966 39.4494947 250.625 40.125 C249.61203857 40.20041016 248.59907715 40.27582031 247.55541992 40.35351562 C244.0380729 40.59626095 240.5202685 40.80380393 237 41 C236.22769043 41.0437677 235.45538086 41.0875354 234.65966797 41.13262939 C218.71814192 42.0090141 202.79397138 42.15730153 186.83154297 42.13037109 C183.44283623 42.12469741 180.05420846 42.12805487 176.66550446 42.13380814 C163.06743764 42.15339213 149.48141042 42.03816196 135.890625 41.5546875 C134.7755658 41.51594513 133.66050659 41.47720276 132.51165771 41.43728638 C127.58622069 41.24050858 122.85170032 40.92387153 118 40 C116.25340258 39.83309747 114.50437266 39.69000528 112.75390625 39.5703125 C111.76326172 39.4988501 110.77261719 39.4273877 109.75195312 39.35375977 C108.69943359 39.27826904 107.64691406 39.20277832 106.5625 39.125 C83.21843427 37.34547654 59.5404056 34.54236989 37 28 C36.20287598 27.77272217 35.40575195 27.54544434 34.58447266 27.3112793 C6.49926462 19.21188792 6.49926462 19.21188792 0.18359375 10.4921875 C-1.37899074 7.2019931 -1.27651247 4.59466207 -1 1 C-0.67 0.67 -0.34 0.34 0 0 Z " fill="#472916" transform="translate(358,366)"/>
<path d="M0 0 C2.26953125 0.18359375 2.26953125 0.18359375 5 1 C6.88671875 3.22265625 6.88671875 3.22265625 8.6875 6.0625 C12.74862799 11.94885405 17.22966959 15.85045357 23 20 C24.43859375 21.05380859 24.43859375 21.05380859 25.90625 22.12890625 C27.7502675 23.4747416 29.59990803 24.81293277 31.45703125 26.140625 C32.71580078 27.06101563 32.71580078 27.06101563 34 28 C34.8353125 28.598125 35.670625 29.19625 36.53125 29.8125 C39.51055407 32.45238968 41.57786598 35.41483753 43.6875 38.75 C44.07744141 39.33265625 44.46738281 39.9153125 44.86914062 40.515625 C50.89321422 49.90700127 51.19599528 60.36394779 48.875 71.0625 C46.5383509 79.53148172 41.69329187 88.1500988 35 94 C32.125 94.9375 32.125 94.9375 30 95 C30.14204741 93.41632253 30.28880153 91.83306682 30.4375 90.25 C30.51871094 89.36828125 30.59992187 88.4865625 30.68359375 87.578125 C31 85 31 85 31.50488281 83.08959961 C33.47187485 74.78807848 33.42125503 63.42158622 29.28515625 55.890625 C27.37882271 53.08617079 25.4087017 50.3585545 23.26953125 47.7265625 C22 46 22 46 21 43 C19.6678529 42.33096612 18.33426184 41.66480642 17 41 C7.5216153 32.27237845 -0.27445742 21.02040347 -1.14453125 7.8046875 C-1.24913793 2.49827586 -1.24913793 2.49827586 0 0 Z " fill="#E4C8A5" transform="translate(485,186)"/>
<path d="M0 0 C0.66 0.66 1.32 1.32 2 2 C0.68 3.32 -0.64 4.64 -2 6 C-0.90171875 6.02578125 0.1965625 6.0515625 1.328125 6.078125 C25.1233939 6.83297122 50.15297914 8.44945658 73.0234375 15.40625 C74.97491118 15.99246344 76.9344089 16.51825069 78.90625 17.03125 C89.85063366 20.03369153 89.85063366 20.03369153 93 25 C93 28.00399757 92.51384634 29.3693704 90.625 31.6875 C89 33 89 33 86 35 C82.96547627 34.62068453 81.62438979 33.74959319 79 32 C66.3013878 27.69389621 53.22628701 25.42950244 39.99755859 23.44970703 C37.14807574 23.02221498 34.30276842 22.57272532 31.45703125 22.12109375 C21.54801015 20.60377769 11.70475479 19.67700365 1.6875 19.25 C0.65568604 19.20528564 -0.37612793 19.16057129 -1.43920898 19.11450195 C-7.41294953 18.91672831 -13.07727692 19.18984513 -19 20 C-19 19.34 -19 18.68 -19 18 C-18.38511719 17.82984375 -17.77023437 17.6596875 -17.13671875 17.484375 C-12.22458123 16.06961305 -12.22458123 16.06961305 -8.0625 13.25 C-6.84382868 10.8586145 -6.84382868 10.8586145 -6.125 7.5 C-4.83598526 3.48973191 -3.45907745 2.27570885 0 0 Z " fill="#442714" transform="translate(590,288)"/>
<path d="M0 0 C0.7734375 1.99609375 0.7734375 1.99609375 1.375 4.4375 C2.43328466 8.29028536 2.43328466 8.29028536 5.6875 10.5625 C6.450625 10.706875 7.21375 10.85125 8 11 C8 11.66 8 12.32 8 13 C6.72809814 13.06469482 5.45619629 13.12938965 4.14575195 13.19604492 C-40.4509212 15.32244865 -40.4509212 15.32244865 -83.66796875 25.86328125 C-87 27 -87 27 -89 27 C-89 27.66 -89 28.32 -89 29 C-92.52775489 28.69762101 -94.03808865 27.97019149 -96.875 25.75 C-99 23 -99 23 -99.125 20.4375 C-96.78592528 15.36950477 -92.00184302 13.33194804 -87 11.4375 C-85.989375 11.04433594 -84.97875 10.65117187 -83.9375 10.24609375 C-73.24018698 6.6331423 -61.94795372 5.01874657 -50.8125 3.375 C-50.08053406 3.2653894 -49.34856812 3.15577881 -48.59442139 3.04284668 C-35.49451058 1.1040414 -22.55615163 0.20118868 -9.30126953 0.12597656 C-7.00584407 0.08006601 -7.00584407 0.08006601 -4.88232422 -0.57128906 C-3 -1 -3 -1 0 0 Z " fill="#442714" transform="translate(496,294)"/>
<path d="M0 0 C0.86302734 -0.03738281 1.72605469 -0.07476562 2.61523438 -0.11328125 C7.07836007 -0.1747474 9.91394962 -0.01933759 13.42578125 2.8984375 C14.21339844 3.71570313 15.00101562 4.53296875 15.8125 5.375 C12.59013194 8.59736806 9.33557569 8.49062469 4.9296875 8.515625 C-15.78190612 8.85393917 -35.79522392 11.96200156 -56.1875 15.375 C-56.5175 14.055 -56.8475 12.735 -57.1875 11.375 C-55.5375 11.375 -53.8875 11.375 -52.1875 11.375 C-52.1875 10.715 -52.1875 10.055 -52.1875 9.375 C-50.5375 9.045 -48.8875 8.715 -47.1875 8.375 C-52.1375 8.375 -57.0875 8.375 -62.1875 8.375 C-61.8575 7.715 -61.5275 7.055 -61.1875 6.375 C-58.18404053 5.84893465 -55.24568582 5.44901639 -52.21875 5.12109375 C-51.30927612 5.01531509 -50.39980225 4.90953644 -49.46276855 4.80055237 C-46.53859946 4.46252155 -43.61315581 4.13738611 -40.6875 3.8125 C-38.74469501 3.59003524 -36.80198514 3.36673804 -34.859375 3.14257812 C-30.43908743 2.63459202 -26.01803956 2.13419847 -21.59577942 1.64367676 C-19.97669305 1.46304536 -18.35794927 1.279319 -16.73954773 1.09265137 C-11.14799381 0.45248224 -5.62861823 0.09373929 0 0 Z " fill="#764D32" transform="translate(479.1875,286.625)"/>
<path d="M0 0 C3.25479594 0.71135746 4.86989123 1.36272248 7 4 C7.93249614 6.79748841 8.13476152 8.54320881 8.125 11.4375 C8.12886719 12.58025391 8.12886719 12.58025391 8.1328125 13.74609375 C8.00276015 15.95315859 7.60856199 17.87969276 7 20 C6.01 20 5.02 20 4 20 C4 17.03 4 14.06 4 11 C3.38511719 11.433125 2.77023437 11.86625 2.13671875 12.3125 C1.32847656 12.869375 0.52023437 13.42625 -0.3125 14 C-1.11300781 14.556875 -1.91351562 15.11375 -2.73828125 15.6875 C-5 17 -5 17 -8 17 C-8 17.66 -8 18.32 -8 19 C-10.97 19.66 -13.94 20.32 -17 21 C-13.79815175 17.38051937 -10.08286911 15.00704594 -6.0234375 12.46484375 C-2.78352649 10.11934832 -1.73709151 7.56875585 -0.875 3.8125 C-0.441875 1.9253125 -0.441875 1.9253125 0 0 Z " fill="#9E683E" transform="translate(712,520)"/>
<path d="M0 0 C0.2475 1.216875 0.495 2.43375 0.75 3.6875 C2.40884003 10.06506743 5.48241298 12.81106186 11.0625 16.125 C11.91972656 16.60195313 12.77695312 17.07890625 13.66015625 17.5703125 C15.79548391 18.87503691 17.3327911 20.15240456 19 22 C11.55061091 19.76518327 4.89175479 16.58052094 -2 13 C-4.38211471 11.58870658 -4.38211471 11.58870658 -7 11 C-7.25 5.375 -7.25 5.375 -5 2 C-1.52631579 0 -1.52631579 0 0 0 Z " fill="#9B6A40" transform="translate(367,520)"/>
<path d="M0 0 C0.495 1.485 0.495 1.485 1 3 C0.29359375 2.93941406 -0.4128125 2.87882812 -1.140625 2.81640625 C-9.0660837 2.16922683 -16.98607803 1.72599701 -24.93066406 1.39282227 C-29.68451965 1.17789231 -34.30147032 0.75987003 -39 0 C-39 -0.33 -39 -0.66 -39 -1 C-26.44651458 -3.9889251 -12.61710662 -1.63555086 0 0 Z " fill="#74503A" transform="translate(632,289)"/>
<path d="M0 0 C4.75 1.875 4.75 1.875 7 3 C7 3.66 7 4.32 7 5 C7.598125 5.226875 8.19625 5.45375 8.8125 5.6875 C11.66573528 7.39944117 12.49165419 9.0406911 14 12 C16.19993706 21.21150115 16.25748958 30.5873254 16 40 C15.67 40 15.34 40 15 40 C14.82778931 38.68394775 14.82778931 38.68394775 14.65209961 37.34130859 C14.20813614 34.060707 13.73732406 30.78627379 13.24829102 27.51220703 C13.04288037 26.09966595 12.84801972 24.68554606 12.66430664 23.27001953 C11.71168692 13.76159706 11.71168692 13.76159706 6.50390625 6.1640625 C4.7597488 4.95927129 4.7597488 4.95927129 3 4 C2.01 3.34 1.02 2.68 0 2 C0 1.34 0 0.68 0 0 Z " fill="#5B3922" transform="translate(731,360)"/>
<path d="M0 0 C1.69141656 0.08963062 3.37959602 0.24577676 5.0625 0.4375 C6.44115234 0.59025391 6.44115234 0.59025391 7.84765625 0.74609375 C8.55792969 0.82988281 9.26820313 0.91367187 10 1 C10 1.33 10 1.66 10 2 C-0.94606972 4.01950744 -12.26919078 4.09263322 -23.375 4.1875 C-24.596427 4.20695679 -24.596427 4.20695679 -25.8425293 4.22680664 C-29.75306432 4.23301713 -31.67203362 4.21864425 -35 2 C-31.20848522 1.82975764 -27.41676908 1.66447298 -23.625 1.5 C-22.56410156 1.45230469 -21.50320313 1.40460938 -20.41015625 1.35546875 C-14.54400251 1.10354804 -8.71254454 0.96220549 -2.84130859 1.08007812 C-0.98172574 1.20696445 -0.98172574 1.20696445 0 0 Z " fill="#715039" transform="translate(599,456)"/>
<path d="M0 0 C0.99 0.33 1.98 0.66 3 1 C1.43961789 2.67253458 0.01828277 3.98875757 -1.9375 5.19140625 C-6.14588272 7.98902431 -8.09626893 10.5443353 -9.1875 15.4609375 C-9.99270415 19.95324628 -10.53885072 24.46056181 -11 29 C-11.33 29 -11.66 29 -12 29 C-12.58310464 13.42894643 -12.58310464 13.42894643 -9 8 C-6.13764202 5.15286733 -3.14060406 2.53486911 0 0 Z " fill="#542311" transform="translate(347,360)"/>
<path d="M0 0 C0.92683594 0.00451172 1.85367187 0.00902344 2.80859375 0.01367188 C5.08079709 0.02538426 7.35286388 0.04178628 9.625 0.0625 C9.625 0.7225 9.625 1.3825 9.625 2.0625 C0.93508699 2.85895684 -7.64957699 3.19102505 -16.375 3.0625 C-16.375 2.4025 -16.375 1.7425 -16.375 1.0625 C-10.89230931 -0.09414737 -5.57160726 -0.05166255 0 0 Z " fill="#5E361E" transform="translate(479.375,286.9375)"/>
<path d="M0 0 C2.98350916 -0.27825474 4.51520996 -0.335696 7.01953125 1.3984375 C10.63472448 5.38381391 12.4531789 7.99670722 12.4375 13.5 C12.32658691 15.00298558 12.19295926 16.50533145 12 18 C10.9504759 15.97682102 10.05129503 14.23449157 9.5625 12 C8.83044239 9.3971285 7.91454978 7.91454978 6 6 C3.37374861 5.66574265 3.37374861 5.66574265 1 6 C1 5.01 1 4.02 1 3 C0.67 2.01 0.34 1.02 0 0 Z " fill="#EA7E5C" transform="translate(621,168)"/>
<path d="M0 0 C-0.33 4.29 -0.66 8.58 -1 13 C-3.475 12.01 -3.475 12.01 -6 11 C-6.33 11 -6.66 11 -7 11 C-7.25 5.375 -7.25 5.375 -5 2 C-1.52631579 0 -1.52631579 0 0 0 Z " fill="#A3733D" transform="translate(367,520)"/>
<path d="M0 0 C0.66 0 1.32 0 2 0 C0.97002525 9.54847179 -0.36688011 18.73141797 -3 28 C-3.33 28 -3.66 28 -4 28 C-4.50010209 18.66476098 -2.95887654 8.87662963 0 0 Z " fill="#502C1E" transform="translate(368,313)"/>
<path d="M0 0 C0.99 0 1.98 0 3 0 C3.33725065 3.04127817 3.66992332 6.08294191 4 9.125 C4.09539062 9.9809375 4.19078125 10.836875 4.2890625 11.71875 C4.76845209 16.17022474 5.11765458 20.51441925 5 25 C4.34 24.67 3.68 24.34 3 24 C2.49755859 21.68334961 2.49755859 21.68334961 2.1484375 18.65234375 C2.01953125 17.57275391 1.890625 16.49316406 1.7578125 15.38085938 C1.63148438 14.24455078 1.50515625 13.10824219 1.375 11.9375 C1.2409375 10.79732422 1.106875 9.65714844 0.96875 8.48242188 C0.6375975 5.65579877 0.31507931 2.82845248 0 0 Z " fill="#B0794E" transform="translate(372,631)"/>
<path d="M0 0 C0.99 0.33 1.98 0.66 3 1 C3.33 3.31 3.66 5.62 4 8 C3.01 8 2.02 8 1 8 C0.67 7.34 0.34 6.68 0 6 C-2.31 6.66 -4.62 7.32 -7 8 C-6.67 6.35 -6.34 4.7 -6 3 C-6.99 3 -7.98 3 -9 3 C-9 2.34 -9 1.68 -9 1 C-6.03 1.33 -3.06 1.66 0 2 C0 1.34 0 0.68 0 0 Z " fill="#EA896A" transform="translate(655,180)"/>
<path d="M0 0 C0.66 0 1.32 0 2 0 C2 3 2 3 0.5 4.6875 C0.005 5.120625 -0.49 5.55375 -1 6 C1.31 6 3.62 6 6 6 C6 6.33 6 6.66 6 7 C5.31035156 6.98839844 4.62070312 6.97679687 3.91015625 6.96484375 C-2.15772652 6.90657876 -7.98357396 7.21096052 -14 8 C-14 7.34 -14 6.68 -14 6 C-12.58398286 5.51891725 -11.16715563 5.04021859 -9.75 4.5625 C-8.96109375 4.29566406 -8.1721875 4.02882813 -7.359375 3.75390625 C-5 3 -5 3 -2.765625 2.52734375 C-1.89164063 2.26630859 -1.89164063 2.26630859 -1 2 C-0.67 1.34 -0.34 0.68 0 0 Z " fill="#583A23" transform="translate(585,300)"/>
<path d="M0 0 C5.61 0.66 11.22 1.32 17 2 C16.67 2.66 16.34 3.32 16 4 C10.06 4 4.12 4 -2 4 C-1.34 2.68 -0.68 1.36 0 0 Z " fill="#875D44" transform="translate(581,345)"/>
<path d="M0 0 C1.22332031 0.09925781 2.44664062 0.19851563 3.70703125 0.30078125 C8.24595538 0.70894019 12.78170405 1.13433777 17.3125 1.625 C17.3125 1.955 17.3125 2.285 17.3125 2.625 C13.79168442 2.65427632 10.27090061 2.67189119 6.75 2.6875 C5.75935547 2.69587891 4.76871094 2.70425781 3.74804688 2.71289062 C-1.51298699 2.73036914 -6.50514665 2.54808398 -11.6875 1.625 C-11.6875 1.295 -11.6875 0.965 -11.6875 0.625 C-7.63651443 -0.39344665 -4.15233211 -0.34409023 0 0 Z " fill="#64391F" transform="translate(604.6875,287.375)"/>
<path d="M0 0 C1.14662109 -0.00386719 1.14662109 -0.00386719 2.31640625 -0.0078125 C4.4375 0.125 4.4375 0.125 7.4375 1.125 C7.4375 1.785 7.4375 2.445 7.4375 3.125 C6.70144531 3.10179687 5.96539063 3.07859375 5.20703125 3.0546875 C3.74330078 3.02761719 3.74330078 3.02761719 2.25 3 C0.80560547 2.96519531 0.80560547 2.96519531 -0.66796875 2.9296875 C-4.83637844 3.21095671 -7.59938631 4.16188631 -10.5625 7.125 C-11.5525 6.795 -12.5425 6.465 -13.5625 6.125 C-9.05813656 1.24527294 -6.51582447 -0.02205017 0 0 Z " fill="#E57B5B" transform="translate(647.5625,178.875)"/>
<path d="M0 0 C0.66 0.33 1.32 0.66 2 1 C2.18451025 12.52164009 2.18451025 12.52164009 1 18 C-1.47599533 14.286007 -1.23739325 12.29282091 -1.1875 7.875 C-1.18105469 6.61429688 -1.17460938 5.35359375 -1.16796875 4.0546875 C-1 1 -1 1 0 0 Z " fill="#E7D0B5" transform="translate(533,239)"/>
<path d="M0 0 C0.99 0.495 0.99 0.495 2 1 C2.63801836 3.5315866 3.16687368 5.99839502 3.625 8.5625 C3.7590625 9.27341797 3.893125 9.98433594 4.03125 10.71679688 C4.36191847 12.47642553 4.68195767 14.23804548 5 16 C4.01 16 3.02 16 2 16 C-0.27141454 10.60539047 -0.20413361 5.73842251 0 0 Z " fill="#47230E" transform="translate(716,340)"/>
<path d="M0 0 C6.04801071 0.54981916 11.30601106 1.90429574 17 4 C17 4.33 17 4.66 17 5 C3.3667426 4.03644647 3.3667426 4.03644647 -3 3 C-2.01 2.67 -1.02 2.34 0 2 C0 1.34 0 0.68 0 0 Z " fill="#68341B" transform="translate(655,292)"/>
<path d="M0 0 C0.33 1.32 0.66 2.64 1 4 C-1.61514317 6.12038635 -4.19637616 8.13091744 -7 10 C-9.1875 9.625 -9.1875 9.625 -11 9 C-10.21625 8.401875 -9.4325 7.80375 -8.625 7.1875 C-5.85425677 5.08914751 -5.85425677 5.08914751 -4 2 C-1.875 0.8125 -1.875 0.8125 0 0 Z " fill="#4A2B19" transform="translate(744,420)"/>
<path d="M0 0 C2.08309126 4.16618251 2.63579694 7.71083714 3.125 12.25 C3.21136719 12.99507812 3.29773438 13.74015625 3.38671875 14.5078125 C3.59786867 16.33777846 3.79984545 18.16879879 4 20 C3.01 20.33 2.02 20.66 1 21 C0.67 14.07 0.34 7.14 0 0 Z " fill="#B37C4E" transform="translate(378,664)"/>
<path d="M0 0 C0.99 0 1.98 0 3 0 C2.67 1.32 2.34 2.64 2 4 C2.99 4 3.98 4 5 4 C4.67 4.99 4.34 5.98 4 7 C2.02 7.33 0.04 7.66 -2 8 C-3 5 -3 5 -1.75 2.3125 C-1.1725 1.549375 -0.595 0.78625 0 0 Z " fill="#D8BC9F" transform="translate(543,281)"/>
<path d="M0 0 C-3.11553539 2.07702359 -5.39010071 2.74906855 -9 3.625 C-10.5778125 4.01558594 -10.5778125 4.01558594 -12.1875 4.4140625 C-15 5 -15 5 -18 5 C-18 4.34 -18 3.68 -18 3 C-11.75726932 0.5206176 -6.71700347 -0.31985731 0 0 Z " fill="#582D14" transform="translate(404,298)"/>
<path d="M0 0 C0 1.32 0 2.64 0 4 C-3.55293493 5.14947895 -4.79976669 5.0868937 -8.3125 3.5625 C-9.199375 3.046875 -10.08625 2.53125 -11 2 C-7.36576791 -0.32590854 -4.22911669 -0.16265833 0 0 Z " fill="#E78563" transform="translate(620,167)"/>
<path d="M0 0 C0.33 0 0.66 0 1 0 C1.3690205 9.41002278 1.3690205 9.41002278 -1 14 C-1.66 14 -2.32 14 -3 14 C-2.58846263 9.02906176 -2.20399168 4.55491614 0 0 Z " fill="#3F1E0F" transform="translate(363,342)"/>
<path d="M0 0 C0 0.66 0 1.32 0 2 C-8.03007236 3.50563857 -15.91432876 2.63782601 -24 2 C-24 1.67 -24 1.34 -24 1 C-21.31264212 0.83071761 -18.62515116 0.6645047 -15.9375 0.5 C-14.80924805 0.42845703 -14.80924805 0.42845703 -13.65820312 0.35546875 C-9.09508249 0.07891598 -4.57143477 -0.0485677 0 0 Z " fill="#735643" transform="translate(570,307)"/>
<path d="M0 0 C0.66 0.33 1.32 0.66 2 1 C-3.29411765 7.76470588 -3.29411765 7.76470588 -7 9 C-7.99 9 -8.98 9 -10 9 C-10 8.34 -10 7.68 -10 7 C-8.35443434 5.96564444 -6.6829392 4.97236487 -5 4 C-3.31522656 2.68962066 -1.64351457 1.36176922 0 0 Z " fill="#C7825A" transform="translate(556,715)"/>
<path d="M0 0 C0.99 0.33 1.98 0.66 3 1 C3 3 3 5 3 7 C2.34 7 1.68 7 1 7 C1 7.66 1 8.32 1 9 C-0.32 9.33 -1.64 9.66 -3 10 C-2.01 6.7 -1.02 3.4 0 0 Z " fill="#A2754D" transform="translate(712,520)"/>
<path d="M0 0 C2.31 0 4.62 0 7 0 C7.33 0.99 7.66 1.98 8 3 C5.8614515 5.1385485 4.86724686 5.42655063 2 6 C2 5.01 2 4.02 2 3 C1.34 3 0.68 3 0 3 C0 2.01 0 1.02 0 0 Z " fill="#DFC9AC" transform="translate(551,88)"/>
<path d="M0 0 C0.80179688 0.00451172 1.60359375 0.00902344 2.4296875 0.01367188 C4.41149006 0.02546832 6.39325433 0.04340395 8.375 0.0625 C8.375 0.3925 8.375 0.7225 8.375 1.0625 C-1.03 2.0525 -1.03 2.0525 -10.625 3.0625 C-10.625 2.4025 -10.625 1.7425 -10.625 1.0625 C-7.31505287 -0.59247356 -3.63377 -0.03834335 0 0 Z " fill="#C49874" transform="translate(599.625,772.9375)"/>
<path d="M0 0 C0.66 0.33 1.32 0.66 2 1 C0.84271802 6.59352956 -0.41493454 10.51866817 -4 15 C-4.66 15 -5.32 15 -6 15 C-5.49396008 12.83125748 -5.00016187 11.00032373 -4 9 C-3.34 9 -2.68 9 -2 9 C-1.34 6.03 -0.68 3.06 0 0 Z " fill="#C19D78" transform="translate(692,729)"/>
<path d="M0 0 C2.475 0.99 2.475 0.99 5 2 C5 3.32 5 4.64 5 6 C5.66 6 6.32 6 7 6 C7 5.34 7 4.68 7 4 C7.66 4 8.32 4 9 4 C8.6875 5.9375 8.6875 5.9375 8 8 C7.01 8.33 6.02 8.66 5 9 C4.34 7.35 3.68 5.7 3 4 C2.01 4 1.02 4 0 4 C0 2.68 0 1.36 0 0 Z " fill="#C87752" transform="translate(534,630)"/>
<path d="M0 0 C0.33 0.66 0.66 1.32 1 2 C1.66 2 2.32 2 3 2 C4.10844919 5.32534757 3.84454356 7.62182575 3 11 C2.01 11 1.02 11 0 11 C0 7.37 0 3.74 0 0 Z " fill="#BA8751" transform="translate(710,577)"/>
<path d="M0 0 C-0.66 0.66 -1.32 1.32 -2 2 C-2.99 2 -3.98 2 -5 2 C-5 2.66 -5 3.32 -5 4 C-7.97 4.66 -10.94 5.32 -14 6 C-9.7384399 1.42276879 -6.43766663 -2.02326665 0 0 Z " fill="#A37248" transform="translate(709,535)"/>
<path d="M0 0 C0.309375 0.639375 0.61875 1.27875 0.9375 1.9375 C1.8345163 3.93610821 1.8345163 3.93610821 3 5 C3.07271741 7.35313555 3.08370868 9.70833668 3.0625 12.0625 C3.05347656 13.35285156 3.04445313 14.64320313 3.03515625 15.97265625 C3.02355469 16.97167969 3.01195312 17.97070312 3 19 C2.67 19 2.34 19 2 19 C0.82706111 12.6221448 -0.29530838 6.49678438 0 0 Z " fill="#411D0B" transform="translate(744,381)"/>
<path d="M0 0 C-1.08203125 1.48828125 -1.08203125 1.48828125 -3 3 C-6.13671875 3.29296875 -6.13671875 3.29296875 -9.6875 3.1875 C-11.45673828 3.14689453 -11.45673828 3.14689453 -13.26171875 3.10546875 C-14.16535156 3.07066406 -15.06898438 3.03585937 -16 3 C-10.9749232 -0.3500512 -5.9145821 -0.11829164 0 0 Z " fill="#8A5F46" transform="translate(496,345)"/>
<path d="M0 0 C0.66 0 1.32 0 2 0 C4.01167675 5.78357065 4.22084624 10.90218999 4 17 C1.94862685 13.51783717 1.43181408 10.22724343 0.875 6.25 C0.70742188 5.07953125 0.53984375 3.9090625 0.3671875 2.703125 C0.24601563 1.81109375 0.12484375 0.9190625 0 0 Z " fill="#4F2A17" transform="translate(712,322)"/>
<path d="M0 0 C3.3 0.99 6.6 1.98 10 3 C10 3.66 10 4.32 10 5 C2.375 4.125 2.375 4.125 -1 3 C-0.67 2.01 -0.34 1.02 0 0 Z " fill="#5E3C19" transform="translate(684,298)"/>
<path d="M0 0 C2.375 0.25 2.375 0.25 5 1 C6.3125 3.0625 6.3125 3.0625 7 5 C6.05125 4.95875 5.1025 4.9175 4.125 4.875 C0.89755144 4.65026182 0.89755144 4.65026182 -1 7 C-0.67 4.69 -0.34 2.38 0 0 Z " fill="#EAD7AA" transform="translate(485,186)"/>
<path d="M0 0 C0.33 0.66 0.66 1.32 1 2 C0.34 2 -0.32 2 -1 2 C-1.2475 2.598125 -1.495 3.19625 -1.75 3.8125 C-3.18072525 6.31626919 -4.5691582 7.48072388 -7 9 C-7.66 9 -8.32 9 -9 9 C-8.63594751 6.29561004 -8.31857318 5.25593617 -6.15234375 3.515625 C-5.42144531 3.09796875 -4.69054687 2.6803125 -3.9375 2.25 C-3.20402344 1.82203125 -2.47054687 1.3940625 -1.71484375 0.953125 C-1.14894531 0.63859375 -0.58304688 0.3240625 0 0 Z " fill="#D8BD91" transform="translate(539,93)"/>
<path d="M0 0 C1.74965358 -0.05429959 3.49979787 -0.09292823 5.25 -0.125 C6.22453125 -0.14820313 7.1990625 -0.17140625 8.203125 -0.1953125 C11.0196498 0.00137219 12.60949036 0.55431084 15 2 C11.53777385 3.06723961 8.35960734 3.10173486 4.75 3.0625 C3.67234375 3.05347656 2.5946875 3.04445313 1.484375 3.03515625 C0.66453125 3.02355469 -0.1553125 3.01195312 -1 3 C-0.67 2.01 -0.34 1.02 0 0 Z " fill="#CDA884" transform="translate(569,775)"/>
<path d="M0 0 C0.99 0 1.98 0 3 0 C4.26026798 2.52053595 3.91874445 3.8542098 3.5625 6.625 C3.40974609 7.85089844 3.40974609 7.85089844 3.25390625 9.1015625 C3.17011719 9.72804688 3.08632813 10.35453125 3 11 C2.34 11 1.68 11 1 11 C0.67 7.37 0.34 3.74 0 0 Z " fill="#E8CEB4" transform="translate(681,747)"/>
<path d="M0 0 C1.875 0.3125 1.875 0.3125 4 1 C6.20914 4.31371 6.22481553 5.3446021 6.125 9.1875 C6.10695313 10.08855469 6.08890625 10.98960937 6.0703125 11.91796875 C6.03550781 12.94857422 6.03550781 12.94857422 6 14 C4.0546875 10.234375 4.0546875 10.234375 3.5625 8.125 C2.78745977 5.19707026 1.39864174 2.67566246 0 0 Z " fill="#E56C4E" transform="translate(627,172)"/>
<path d="M0 0 C-5.25603094 4.47735969 -10.40677012 4.11174966 -17 4 C-11.88643979 1.01708988 -5.89517358 -0.36844835 0 0 Z " fill="#C3A07B" transform="translate(679,547)"/>
<path d="M0 0 C2.96783129 1.45668783 5.86415313 3.01232086 8.75 4.625 C9.94882812 5.29402344 9.94882812 5.29402344 11.171875 5.9765625 C11.77515625 6.31429687 12.3784375 6.65203125 13 7 C12.01 7.495 12.01 7.495 11 8 C8.92803369 7.26821134 6.8891448 6.44100997 4.875 5.5625 C3.77929688 5.08941406 2.68359375 4.61632812 1.5546875 4.12890625 C0.71164062 3.75636719 -0.13140625 3.38382813 -1 3 C-0.67 2.01 -0.34 1.02 0 0 Z " fill="#A2744C" transform="translate(373,534)"/>
<path d="M0 0 C0.99 0 1.98 0 3 0 C4.28571429 7.42857143 4.28571429 7.42857143 3 11 C2.01 11 1.02 11 0 11 C0 7.37 0 3.74 0 0 Z " fill="#A8753C" transform="translate(716,529)"/>
<path d="M0 0 C0.99 0.33 1.98 0.66 3 1 C0.92141021 3.18092036 -1.21856618 4.96390469 -3.6875 6.6875 C-4.62142578 7.34298828 -4.62142578 7.34298828 -5.57421875 8.01171875 C-6.04472656 8.33785156 -6.51523437 8.66398437 -7 9 C-7 6 -7 6 -5.57421875 4.359375 C-4.95160156 3.82828125 -4.32898438 3.2971875 -3.6875 2.75 C-3.07261719 2.20859375 -2.45773437 1.6671875 -1.82421875 1.109375 C-1.22222656 0.74328125 -0.62023437 0.3771875 0 0 Z " fill="#653421" transform="translate(347,360)"/>
<path d="M0 0 C2.31 0 4.62 0 7 0 C3.6269381 2.96829447 0.37031116 4.06350475 -4 5 C-6.4375 4.625 -6.4375 4.625 -8 4 C-4.77208445 1.8480563 -3.71599191 1.79913557 0 2 C0 1.34 0 0.68 0 0 Z " fill="#CE714F" transform="translate(565,615)"/>
<path d="M0 0 C0.66 0 1.32 0 2 0 C1.72510809 4.03174806 1.46508424 5.56894631 -1.5625 8.375 C-2.366875 8.91125 -3.17125 9.4475 -4 10 C-4 5.75354935 -2.18249194 3.61475228 0 0 Z " fill="#E0CBAE" transform="translate(523,270)"/>
<path d="M0 0 C0.99 0.33 1.98 0.66 3 1 C2.34 4.3 1.68 7.6 1 11 C-1 9 -1 9 -1.23046875 7.08984375 C-1.11111111 1.11111111 -1.11111111 1.11111111 0 0 Z " fill="#AE8056" transform="translate(698,680)"/>
<path d="M0 0 C0.66 0 1.32 0 2 0 C1.50769231 6.4 1.50769231 6.4 -1.0625 9.4375 C-1.701875 9.953125 -2.34125 10.46875 -3 11 C-2.69217504 9.35328588 -2.37860766 7.70764424 -2.0625 6.0625 C-1.88847656 5.14597656 -1.71445312 4.22945313 -1.53515625 3.28515625 C-1 1 -1 1 0 0 Z " fill="#301008" transform="translate(585,293)"/>
<path d="M0 0 C0.33 0.99 0.66 1.98 1 3 C-0.3125 4.5 -0.3125 4.5 -2 6 C-2.99 6 -3.98 6 -5 6 C-5.33 4.68 -5.66 3.36 -6 2 C-4.02 1.34 -2.04 0.68 0 0 Z " fill="#E2754F" transform="translate(657,208)"/>
<path d="M0 0 C-0.99 1.485 -0.99 1.485 -2 3 C-4.8203125 3.51171875 -4.8203125 3.51171875 -8.125 3.6875 C-9.76855469 3.78611328 -9.76855469 3.78611328 -11.4453125 3.88671875 C-12.28835938 3.92410156 -13.13140625 3.96148438 -14 4 C-11.37350692 2.24900461 -9.38191413 1.30690675 -6.4375 0.3125 C-5.65246094 0.04050781 -4.86742187 -0.23148438 -4.05859375 -0.51171875 C-2 -1 -2 -1 0 0 Z " fill="#F0D9BE" transform="translate(656,762)"/>
<path d="M0 0 C0.66 0 1.32 0 2 0 C1.34 4.29 0.68 8.58 0 13 C-2 10 -2 10 -1.7578125 7.51953125 C-1.54898437 6.62621094 -1.34015625 5.73289062 -1.125 4.8125 C-0.92132813 3.91144531 -0.71765625 3.01039063 -0.5078125 2.08203125 C-0.34023438 1.39496094 -0.17265625 0.70789063 0 0 Z " fill="#48210D" transform="translate(368,313)"/>
<path d="M0 0 C5.28 0 10.56 0 16 0 C16 0.33 16 0.66 16 1 C10.72 1.66 5.44 2.32 0 3 C0 2.01 0 1.02 0 0 Z " fill="#6F442B" transform="translate(413,294)"/>
<path d="M0 0 C0.66 0 1.32 0 2 0 C1.67 2.31 1.34 4.62 1 7 C0.01 7.33 -0.98 7.66 -2 8 C-2.33 8.66 -2.66 9.32 -3 10 C-2.49287967 6.28111761 -1.88391785 3.26545761 0 0 Z " fill="#DEBE96" transform="translate(552,265)"/>
<path d="M0 0 C0.99 0.33 1.98 0.66 3 1 C1.02 3.31 -0.96 5.62 -3 8 C-3.66 6.68 -4.32 5.36 -5 4 C-3.36587557 2.29159719 -2.13093906 1.06546953 0 0 Z " fill="#E0CBAC" transform="translate(565,269)"/>
<path d="M0 0 C0.66 0 1.32 0 2 0 C2 0.99 2 1.98 2 3 C2.99 3.33 3.98 3.66 5 4 C4.34 5.32 3.68 6.64 3 8 C1.68 7.34 0.36 6.68 -1 6 C-0.67 4.02 -0.34 2.04 0 0 Z " fill="#EA7350" transform="translate(613,226)"/>
<path d="M0 0 C0.33 0 0.66 0 1 0 C1.38897161 1.62171239 1.76078298 3.24754925 2.125 4.875 C2.33382812 5.77992188 2.54265625 6.68484375 2.7578125 7.6171875 C2.83773437 8.40351563 2.91765625 9.18984375 3 10 C2.34 10.66 1.68 11.32 1 12 C-1.32488647 8.36736489 -1.23961213 5.23314767 -1 1 C-0.67 0.67 -0.34 0.34 0 0 Z " fill="#DDB98E" transform="translate(538,140)"/>
<path d="M0 0 C4.03520597 1.58962659 8.01811282 3.28232318 12 5 C10.02 5.99 10.02 5.99 8 7 C8 6.34 8 5.68 8 5 C6.8553125 4.814375 6.8553125 4.814375 5.6875 4.625 C3 4 3 4 0 2 C0 1.34 0 0.68 0 0 Z " fill="#432111" transform="translate(346,429)"/>
<path d="M0 0 C0.66 0 1.32 0 2 0 C2.66 1.98 3.32 3.96 4 6 C2.35 6.66 0.7 7.32 -1 8 C-1.04241723 5.66705225 -1.04092937 3.33297433 -1 1 C-0.67 0.67 -0.34 0.34 0 0 Z " fill="#532E19" transform="translate(358,366)"/>
<path d="M0 0 C0.66 0.66 1.32 1.32 2 2 C0.68 3.32 -0.64 4.64 -2 6 C0.64 6 3.28 6 6 6 C6 6.33 6 6.66 6 7 C3.03 7 0.06 7 -3 7 C-3 6.34 -3 5.68 -3 5 C-3.66 4.67 -4.32 4.34 -5 4 C-3.35 2.68 -1.7 1.36 0 0 Z " fill="#613A23" transform="translate(590,288)"/>
<path d="M0 0 C1.69141656 0.08963062 3.37959602 0.24577676 5.0625 0.4375 C6.44115234 0.59025391 6.44115234 0.59025391 7.84765625 0.74609375 C8.55792969 0.82988281 9.26820313 0.91367187 10 1 C10 1.33 10 1.66 10 2 C4.94997778 3.03590199 0.12583611 3.10251672 -5 3 C-4.360625 2.690625 -3.72125 2.38125 -3.0625 2.0625 C-1.06389179 1.1654837 -1.06389179 1.1654837 0 0 Z " fill="#816349" transform="translate(599,456)"/>
<path d="M0 0 C1.65 0 3.3 0 5 0 C4.67 1.65 4.34 3.3 4 5 C2.68 5.33 1.36 5.66 0 6 C0 4.02 0 2.04 0 0 Z " fill="#6B4331" transform="translate(730,427)"/>
<path d="M0 0 C1.12588014 0.95729916 2.2506715 1.91587895 3.375 2.875 C4.00148438 3.40867187 4.62796875 3.94234375 5.2734375 4.4921875 C6.55836651 5.61432007 7.79371975 6.79371975 9 8 C8.01 8.495 8.01 8.495 7 9 C5.82460004 8.07347299 4.65989423 7.13336613 3.5 6.1875 C2.52546875 5.40439453 2.52546875 5.40439453 1.53125 4.60546875 C0 3 0 3 0 0 Z " fill="#3C1306" transform="translate(334,419)"/>
<path d="M0 0 C0.33 1.32 0.66 2.64 1 4 C-2.63 3.34 -6.26 2.68 -10 2 C-10 1.67 -10 1.34 -10 1 C-3.375 0 -3.375 0 0 0 Z " fill="#6C4832" transform="translate(664,300)"/>
<path d="M0 0 C0 0.66 0 1.32 0 2 C1.65 2 3.3 2 5 2 C5 2.33 5 2.66 5 3 C0.71 3 -3.58 3 -8 3 C-8 2.34 -8 1.68 -8 1 C-2.25 0 -2.25 0 0 0 Z " fill="#6A4326" transform="translate(471,287)"/>
<path d="M0 0 C2 2 2 2 2.1953125 4.1640625 C2.16050781 5.38222656 2.16050781 5.38222656 2.125 6.625 C2.10695313 7.44226563 2.08890625 8.25953125 2.0703125 9.1015625 C2.04710937 9.72804687 2.02390625 10.35453125 2 11 C1.34 11 0.68 11 0 11 C-1.28571429 3.57142857 -1.28571429 3.57142857 0 0 Z " fill="#CFB48F" transform="translate(485,189)"/>
<path d="M0 0 C0.66 0.33 1.32 0.66 2 1 C2 3.97 2 6.94 2 10 C1.34 10 0.68 10 0 10 C-1.125 3.375 -1.125 3.375 0 0 Z " fill="#E27E63" transform="translate(599,184)"/>
<path d="M0 0 C1.98 0.99 1.98 0.99 4 2 C3.34 4.64 2.68 7.28 2 10 C-0.09350689 6.5980513 -0.17942163 3.94727588 0 0 Z " fill="#F2E1CC" transform="translate(670,833)"/>
<path d="M0 0 C2.08901197 3.39464446 2.34361606 6.04841529 2 10 C1.34 10.66 0.68 11.32 0 12 C-1.16063604 7.74433453 -0.76173392 4.3164922 0 0 Z " fill="#B08456" transform="translate(706,616)"/>
<path d="M0 0 C2.475 0.495 2.475 0.495 5 1 C5.66 2.98 6.32 4.96 7 7 C5.1875 6.875 5.1875 6.875 3 6 C1.25 2.9375 1.25 2.9375 0 0 Z " fill="#915731" transform="translate(713,521)"/>
<path d="M0 0 C4.75 1.875 4.75 1.875 7 3 C7 3.66 7 4.32 7 5 C7.99 5.33 8.98 5.66 10 6 C9.01 6.33 8.02 6.66 7 7 C5.17578125 6.07421875 5.17578125 6.07421875 3.3125 4.6875 C2.37857422 4.01267578 2.37857422 4.01267578 1.42578125 3.32421875 C0.95527344 2.88722656 0.48476563 2.45023437 0 2 C0 1.34 0 0.68 0 0 Z " fill="#703D29" transform="translate(731,360)"/>
<path d="M0 0 C-4.95 2.475 -4.95 2.475 -10 5 C-10 4.01 -10 3.02 -10 2 C-4.5 -1.125 -4.5 -1.125 0 0 Z " fill="#653016" transform="translate(384,305)"/>
<path d="M0 0 C0.99 0.66 1.98 1.32 3 2 C-0.50776784 3.60355101 -3.14354879 4.22036864 -7 4 C-7 3.34 -7 2.68 -7 2 C-3.6875 0.875 -3.6875 0.875 0 0 Z " fill="#481709" transform="translate(578,304)"/>
<path d="M0 0 C0.99 0.33 1.98 0.66 3 1 C3.33 3.31 3.66 5.62 4 8 C3.01 8 2.02 8 1 8 C1 6.68 1 5.36 1 4 C0.34 3.67 -0.32 3.34 -1 3 C-0.67 2.01 -0.34 1.02 0 0 Z " fill="#EE8F77" transform="translate(655,180)"/>
<path d="M0 0 C2.5 1.75 2.5 1.75 5 4 C5 5.32 5 6.64 5 8 C2 7 2 7 0.3125 3.9375 C-0.120625 2.968125 -0.55375 1.99875 -1 1 C-0.67 0.67 -0.34 0.34 0 0 Z " fill="#E38259" transform="translate(658,182)"/>
<path d="M0 0 C2.97 0.495 2.97 0.495 6 1 C5.01 1.33 4.02 1.66 3 2 C3 3.65 3 5.3 3 7 C2.01 7.495 2.01 7.495 1 8 C0.67 5.36 0.34 2.72 0 0 Z " fill="#F5E4D0" transform="translate(357,453)"/>
<path d="M0 0 C3.78012495 0.42001388 6.66152773 1.22575769 10 3 C8.54207116 3.05399736 7.08357288 3.09279177 5.625 3.125 C4.81289063 3.14820313 4.00078125 3.17140625 3.1640625 3.1953125 C1 3 1 3 -1 1 C-0.67 0.67 -0.34 0.34 0 0 Z " fill="#5D3418" transform="translate(635,290)"/>
<path d="M0 0 C1.17487036 0.75827092 2.33972592 1.53207755 3.5 2.3125 C4.47453125 2.95638672 4.47453125 2.95638672 5.46875 3.61328125 C5.9740625 4.07089844 6.479375 4.52851563 7 5 C7 5.99 7 6.98 7 8 C6.01 7.67 5.02 7.34 4 7 C4 6.34 4 5.68 4 5 C2.68 4.34 1.36 3.68 0 3 C0 2.01 0 1.02 0 0 Z " fill="#E1C68F" transform="translate(517,213)"/>
<path d="M0 0 C1.32 0 2.64 0 4 0 C4 0.66 4 1.32 4 2 C5.32 2.66 6.64 3.32 8 4 C8 4.99 8 5.98 8 7 C6.66382648 6.02471263 5.3311249 5.04466681 4 4.0625 C3.2575 3.51722656 2.515 2.97195313 1.75 2.41015625 C1.1725 1.94480469 0.595 1.47945313 0 1 C0 0.67 0 0.34 0 0 Z " fill="#542E1C" transform="translate(703,307)"/>
<path d="M0 0 C0.66 0 1.32 0 2 0 C3.78305524 2.63892176 4.99059621 4.97178863 6 8 C2.83884224 6.63016497 2.0072908 6.0109362 0 3 C0 2.01 0 1.02 0 0 Z " fill="#DABE9C" transform="translate(491,211)"/>
<path d="M0 0 C2.31 0 4.62 0 7 0 C6.67 0.99 6.34 1.98 6 3 C6 2.34 6 1.68 6 1 C5.21625 1.495 4.4325 1.99 3.625 2.5 C1 4 1 4 -1 4 C-0.67 2.68 -0.34 1.36 0 0 Z " fill="#BD916A" transform="translate(678,746)"/>
<path d="M0 0 C0.66 0 1.32 0 2 0 C1.67 2.64 1.34 5.28 1 8 C0.34 8 -0.32 8 -1 8 C-1.125 2.25 -1.125 2.25 0 0 Z " fill="#E0CAAF" transform="translate(722,440)"/>
<path d="M0 0 C-2.95070119 1.96713413 -4.53581611 2.65358161 -8 3 C-8.99 2.34 -9.98 1.68 -11 1 C-7.32589215 -0.17571451 -3.83070817 -0.07366746 0 0 Z " fill="#E6734E" transform="translate(620,167)"/>
<path d="M0 0 C0.66 0 1.32 0 2 0 C1.67 3.3 1.34 6.6 1 10 C-1.56687367 6.1496895 -0.83288724 4.41430237 0 0 Z " fill="#BF9166" transform="translate(694,708)"/>
<path d="M0 0 C0.99 0.33 1.98 0.66 3 1 C2.67 1.99 2.34 2.98 2 4 C-0.97 4 -3.94 4 -7 4 C-7 3.34 -7 2.68 -7 2 C-4.69 2 -2.38 2 0 2 C0 1.34 0 0.68 0 0 Z " fill="#7A5944" transform="translate(632,289)"/>
</svg>
