<svg xmlns="http://www.w3.org/2000/svg" width="96" height="96" viewBox="0 0 96 96" role="img" aria-labelledby="title desc">
  <title id="title">Coffee support icon</title>
  <desc id="desc">A simple coffee cup with a heart, used as a local support icon.</desc>
  <defs>
    <linearGradient id="cup" x1="24" y1="34" x2="72" y2="86" gradientUnits="userSpaceOnUse">
      <stop offset="0" stop-color="#fff7e8"/>
      <stop offset="1" stop-color="#f3d7aa"/>
    </linearGradient>
    <linearGradient id="sleeve" x1="22" y1="48" x2="74" y2="78" gradientUnits="userSpaceOnUse">
      <stop offset="0" stop-color="#c68a4a"/>
      <stop offset="1" stop-color="#a96a32"/>
    </linearGradient>
  </defs>
  <path d="M39 21c-4-7 6-10 2-17 9 5 12 14 6 22-4 6-1 10 2 14-8-4-12-10-10-19Z" fill="#d9a96e" opacity=".72"/>
  <path d="M55 20c-3-6 5-9 2-15 8 4 10 12 5 19-3 5-1 8 2 12-7-3-10-8-9-16Z" fill="#e6bd82" opacity=".72"/>
  <path d="M25 34h46l-5 45a9 9 0 0 1-9 8H39a9 9 0 0 1-9-8l-5-45Z" fill="url(#cup)"/>
  <path d="M23 34c0-5 5-9 11-9h28c6 0 11 4 11 9s-5 9-11 9H34c-6 0-11-4-11-9Z" fill="#6f3f24"/>
  <path d="M31 33c0-2 3-4 7-4h20c4 0 7 2 7 4s-3 4-7 4H38c-4 0-7-2-7-4Z" fill="#3e2114" opacity=".55"/>
  <path d="M27 50h42l-4 26a8 8 0 0 1-8 7H39a8 8 0 0 1-8-7l-4-26Z" fill="url(#sleeve)"/>
  <path d="M48 70s-12-7-12-15c0-4 3-7 7-7 3 0 5 2 5 4 0-2 2-4 5-4 4 0 7 3 7 7 0 8-12 15-12 15Z" fill="#ef6446"/>
  <path d="M23 86h50" stroke="#e7c893" stroke-width="5" stroke-linecap="round" opacity=".55"/>
</svg>
